<mxfile host="app.diagrams.net" modified="2024-05-06T10:30:02.552Z" agent="Mozilla/5.0 (X11; Linux x86_64) AppleWebKit/537.36 (KHTML, like Gecko) Chrome/124.0.0.0 Safari/537.36" etag="qEc11qzLIbwaNP4mEXiQ" version="24.3.1" type="google" pages="3">
  <diagram name="general" id="g9NNAyTrI28TUXHVoH37">
    <mxGraphModel grid="1" page="1" gridSize="10" guides="1" tooltips="1" connect="1" arrows="1" fold="1" pageScale="1" pageWidth="1654" pageHeight="1169" math="0" shadow="0">
      <root>
        <mxCell id="0" />
        <mxCell id="1" parent="0" />
        <mxCell id="J2BQLT2Hye8kWJKoQPPj-135" value="" style="rounded=0;whiteSpace=wrap;html=1;" vertex="1" parent="1">
          <mxGeometry x="30" y="60" width="580" height="460" as="geometry" />
        </mxCell>
        <mxCell id="J2BQLT2Hye8kWJKoQPPj-134" value="" style="rounded=0;whiteSpace=wrap;html=1;" vertex="1" parent="1">
          <mxGeometry x="660" y="124" width="580" height="402" as="geometry" />
        </mxCell>
        <mxCell id="J2BQLT2Hye8kWJKoQPPj-126" value="" style="rounded=0;whiteSpace=wrap;html=1;" vertex="1" parent="1">
          <mxGeometry x="940" y="614" width="300" height="280" as="geometry" />
        </mxCell>
        <mxCell id="J2BQLT2Hye8kWJKoQPPj-125" value="" style="rounded=0;whiteSpace=wrap;html=1;" vertex="1" parent="1">
          <mxGeometry x="1260" y="94" width="370" height="432" as="geometry" />
        </mxCell>
        <mxCell id="J2BQLT2Hye8kWJKoQPPj-124" value="" style="rounded=0;whiteSpace=wrap;html=1;" vertex="1" parent="1">
          <mxGeometry x="1030" y="1002" width="120" height="100" as="geometry" />
        </mxCell>
        <mxCell id="J2BQLT2Hye8kWJKoQPPj-122" value="" style="rounded=0;whiteSpace=wrap;html=1;" vertex="1" parent="1">
          <mxGeometry x="740" y="864" width="120" height="100" as="geometry" />
        </mxCell>
        <mxCell id="J2BQLT2Hye8kWJKoQPPj-120" value="" style="rounded=0;whiteSpace=wrap;html=1;" vertex="1" parent="1">
          <mxGeometry x="510" y="624" width="280" height="210" as="geometry" />
        </mxCell>
        <mxCell id="J2BQLT2Hye8kWJKoQPPj-1" value="camera" style="rounded=1;whiteSpace=wrap;html=1;" vertex="1" parent="1">
          <mxGeometry x="50" y="142" width="80" height="30" as="geometry" />
        </mxCell>
        <mxCell id="J2BQLT2Hye8kWJKoQPPj-2" value="&lt;b&gt;videobox&lt;br&gt;&lt;/b&gt;" style="rounded=0;whiteSpace=wrap;html=1;" vertex="1" parent="1">
          <mxGeometry x="290" y="142" width="210" height="60" as="geometry" />
        </mxCell>
        <mxCell id="J2BQLT2Hye8kWJKoQPPj-3" value="HDMI&lt;br&gt;" style="endArrow=classic;html=1;rounded=0;entryX=0;entryY=0.25;entryDx=0;entryDy=0;" edge="1" parent="1" source="J2BQLT2Hye8kWJKoQPPj-1" target="J2BQLT2Hye8kWJKoQPPj-2">
          <mxGeometry width="50" height="50" relative="1" as="geometry">
            <mxPoint x="160" y="312" as="sourcePoint" />
            <mxPoint x="210" y="262" as="targetPoint" />
          </mxGeometry>
        </mxCell>
        <mxCell id="J2BQLT2Hye8kWJKoQPPj-5" value="audio mixer" style="rounded=0;whiteSpace=wrap;html=1;" vertex="1" parent="1">
          <mxGeometry x="290" y="367" width="90" height="20" as="geometry" />
        </mxCell>
        <mxCell id="J2BQLT2Hye8kWJKoQPPj-6" value="Room PA" style="rounded=1;whiteSpace=wrap;html=1;" vertex="1" parent="1">
          <mxGeometry x="254" y="289" width="80" height="30" as="geometry" />
        </mxCell>
        <mxCell id="J2BQLT2Hye8kWJKoQPPj-7" value="microphones" style="rounded=1;whiteSpace=wrap;html=1;" vertex="1" parent="1">
          <mxGeometry x="50" y="350" width="80" height="30" as="geometry" />
        </mxCell>
        <mxCell id="J2BQLT2Hye8kWJKoQPPj-8" value="" style="endArrow=classic;html=1;rounded=0;entryX=0;entryY=0;entryDx=0;entryDy=0;exitX=1;exitY=0.5;exitDx=0;exitDy=0;" edge="1" parent="1" source="J2BQLT2Hye8kWJKoQPPj-7" target="J2BQLT2Hye8kWJKoQPPj-5">
          <mxGeometry width="50" height="50" relative="1" as="geometry">
            <mxPoint x="-30" y="462" as="sourcePoint" />
            <mxPoint x="20" y="412" as="targetPoint" />
          </mxGeometry>
        </mxCell>
        <mxCell id="GihmJb_MI6Jc64lwhvXT-8" value="analog audio" style="edgeLabel;html=1;align=center;verticalAlign=middle;resizable=0;points=[];" connectable="0" vertex="1" parent="J2BQLT2Hye8kWJKoQPPj-8">
          <mxGeometry x="-0.4052" y="-3" relative="1" as="geometry">
            <mxPoint as="offset" />
          </mxGeometry>
        </mxCell>
        <mxCell id="J2BQLT2Hye8kWJKoQPPj-10" value="" style="endArrow=classic;html=1;rounded=0;exitX=0.25;exitY=0;exitDx=0;exitDy=0;entryX=0.75;entryY=1;entryDx=0;entryDy=0;" edge="1" parent="1" source="J2BQLT2Hye8kWJKoQPPj-5" target="J2BQLT2Hye8kWJKoQPPj-6">
          <mxGeometry width="50" height="50" relative="1" as="geometry">
            <mxPoint x="90" y="302" as="sourcePoint" />
            <mxPoint x="440" y="320" as="targetPoint" />
          </mxGeometry>
        </mxCell>
        <mxCell id="GihmJb_MI6Jc64lwhvXT-9" value="analog audio" style="edgeLabel;html=1;align=center;verticalAlign=middle;resizable=0;points=[];" connectable="0" vertex="1" parent="J2BQLT2Hye8kWJKoQPPj-10">
          <mxGeometry x="-0.0918" y="3" relative="1" as="geometry">
            <mxPoint as="offset" />
          </mxGeometry>
        </mxCell>
        <mxCell id="J2BQLT2Hye8kWJKoQPPj-12" value="sproxy" style="rounded=0;whiteSpace=wrap;html=1;" vertex="1" parent="1">
          <mxGeometry x="440" y="182" width="60" height="20" as="geometry" />
        </mxCell>
        <mxCell id="J2BQLT2Hye8kWJKoQPPj-14" value="voctomix" style="rounded=0;whiteSpace=wrap;html=1;" vertex="1" parent="1">
          <mxGeometry x="900" y="212" width="120" height="80" as="geometry" />
        </mxCell>
        <mxCell id="J2BQLT2Hye8kWJKoQPPj-16" value="TCP MPEG-TS" style="endArrow=classic;html=1;rounded=0;exitX=1;exitY=0.5;exitDx=0;exitDy=0;entryX=0;entryY=0.5;entryDx=0;entryDy=0;" edge="1" parent="1" source="J2BQLT2Hye8kWJKoQPPj-12" target="J2BQLT2Hye8kWJKoQPPj-17">
          <mxGeometry width="50" height="50" relative="1" as="geometry">
            <mxPoint x="560" y="202" as="sourcePoint" />
            <mxPoint x="640" y="242" as="targetPoint" />
          </mxGeometry>
        </mxCell>
        <mxCell id="J2BQLT2Hye8kWJKoQPPj-17" value="source-cam" style="rounded=0;whiteSpace=wrap;html=1;" vertex="1" parent="1">
          <mxGeometry x="690" y="222" width="90" height="20" as="geometry" />
        </mxCell>
        <mxCell id="J2BQLT2Hye8kWJKoQPPj-18" value="source-slides" style="rounded=0;whiteSpace=wrap;html=1;" vertex="1" parent="1">
          <mxGeometry x="690" y="269" width="90" height="20" as="geometry" />
        </mxCell>
        <mxCell id="J2BQLT2Hye8kWJKoQPPj-19" value="presenter" style="rounded=1;whiteSpace=wrap;html=1;" vertex="1" parent="1">
          <mxGeometry x="45" y="402" width="80" height="30" as="geometry" />
        </mxCell>
        <mxCell id="J2BQLT2Hye8kWJKoQPPj-20" value="&lt;b&gt;videobox&lt;br&gt;&lt;/b&gt;" style="rounded=0;whiteSpace=wrap;html=1;" vertex="1" parent="1">
          <mxGeometry x="290" y="387" width="210" height="60" as="geometry" />
        </mxCell>
        <mxCell id="J2BQLT2Hye8kWJKoQPPj-21" value="HDMI&lt;br&gt;" style="endArrow=classic;html=1;rounded=0;entryX=0;entryY=0.5;entryDx=0;entryDy=0;" edge="1" parent="1" source="J2BQLT2Hye8kWJKoQPPj-19" target="J2BQLT2Hye8kWJKoQPPj-20">
          <mxGeometry width="50" height="50" relative="1" as="geometry">
            <mxPoint x="160" y="557" as="sourcePoint" />
            <mxPoint x="210" y="507" as="targetPoint" />
          </mxGeometry>
        </mxCell>
        <mxCell id="J2BQLT2Hye8kWJKoQPPj-28" value="sproxy" style="rounded=0;whiteSpace=wrap;html=1;" vertex="1" parent="1">
          <mxGeometry x="440" y="427" width="60" height="20" as="geometry" />
        </mxCell>
        <mxCell id="J2BQLT2Hye8kWJKoQPPj-29" value="beamer" style="rounded=1;whiteSpace=wrap;html=1;" vertex="1" parent="1">
          <mxGeometry x="45" y="450" width="80" height="30" as="geometry" />
        </mxCell>
        <mxCell id="J2BQLT2Hye8kWJKoQPPj-30" value="HDMI&lt;br&gt;" style="endArrow=classic;html=1;rounded=0;entryX=1;entryY=0.5;entryDx=0;entryDy=0;exitX=0;exitY=0.75;exitDx=0;exitDy=0;" edge="1" parent="1" source="J2BQLT2Hye8kWJKoQPPj-20" target="J2BQLT2Hye8kWJKoQPPj-29">
          <mxGeometry width="50" height="50" relative="1" as="geometry">
            <mxPoint x="270" y="412" as="sourcePoint" />
            <mxPoint x="360" y="412" as="targetPoint" />
          </mxGeometry>
        </mxCell>
        <mxCell id="J2BQLT2Hye8kWJKoQPPj-31" value="TCP MPEG-TS" style="endArrow=classic;html=1;rounded=0;exitX=1;exitY=0.25;exitDx=0;exitDy=0;entryX=0;entryY=0.25;entryDx=0;entryDy=0;" edge="1" parent="1" source="J2BQLT2Hye8kWJKoQPPj-28" target="J2BQLT2Hye8kWJKoQPPj-18">
          <mxGeometry width="50" height="50" relative="1" as="geometry">
            <mxPoint x="510" y="202" as="sourcePoint" />
            <mxPoint x="700" y="242" as="targetPoint" />
          </mxGeometry>
        </mxCell>
        <mxCell id="J2BQLT2Hye8kWJKoQPPj-32" value="TCP Raw video" style="endArrow=classic;html=1;rounded=0;exitX=1;exitY=0.5;exitDx=0;exitDy=0;entryX=0;entryY=0.25;entryDx=0;entryDy=0;" edge="1" parent="1" source="J2BQLT2Hye8kWJKoQPPj-17" target="J2BQLT2Hye8kWJKoQPPj-14">
          <mxGeometry width="50" height="50" relative="1" as="geometry">
            <mxPoint x="510" y="202" as="sourcePoint" />
            <mxPoint x="700" y="242" as="targetPoint" />
          </mxGeometry>
        </mxCell>
        <mxCell id="J2BQLT2Hye8kWJKoQPPj-33" value="TCP Raw video" style="endArrow=classic;html=1;rounded=0;exitX=1;exitY=0.25;exitDx=0;exitDy=0;entryX=0;entryY=0.75;entryDx=0;entryDy=0;" edge="1" parent="1" source="J2BQLT2Hye8kWJKoQPPj-18" target="J2BQLT2Hye8kWJKoQPPj-14">
          <mxGeometry width="50" height="50" relative="1" as="geometry">
            <mxPoint x="790" y="242" as="sourcePoint" />
            <mxPoint x="910" y="242" as="targetPoint" />
          </mxGeometry>
        </mxCell>
        <mxCell id="J2BQLT2Hye8kWJKoQPPj-35" value="sink-putput" style="rounded=0;whiteSpace=wrap;html=1;" vertex="1" parent="1">
          <mxGeometry x="915" y="367" width="90" height="20" as="geometry" />
        </mxCell>
        <mxCell id="J2BQLT2Hye8kWJKoQPPj-36" value="sproxy" style="rounded=0;whiteSpace=wrap;html=1;" vertex="1" parent="1">
          <mxGeometry x="930" y="387" width="60" height="20" as="geometry" />
        </mxCell>
        <mxCell id="J2BQLT2Hye8kWJKoQPPj-37" value="TCP Raw video" style="endArrow=classic;html=1;rounded=0;exitX=0.5;exitY=1;exitDx=0;exitDy=0;entryX=0.5;entryY=0;entryDx=0;entryDy=0;" edge="1" parent="1" source="J2BQLT2Hye8kWJKoQPPj-14" target="J2BQLT2Hye8kWJKoQPPj-35">
          <mxGeometry width="50" height="50" relative="1" as="geometry">
            <mxPoint x="790" y="284" as="sourcePoint" />
            <mxPoint x="910" y="282" as="targetPoint" />
          </mxGeometry>
        </mxCell>
        <mxCell id="J2BQLT2Hye8kWJKoQPPj-39" value="Voctop" style="text;html=1;strokeColor=none;fillColor=none;align=center;verticalAlign=middle;whiteSpace=wrap;rounded=0;fontStyle=1" vertex="1" parent="1">
          <mxGeometry x="930" y="142" width="60" height="30" as="geometry" />
        </mxCell>
        <mxCell id="J2BQLT2Hye8kWJKoQPPj-41" value="audiofetcher" style="rounded=0;whiteSpace=wrap;html=1;" vertex="1" parent="1">
          <mxGeometry x="1140" y="262" width="90" height="20" as="geometry" />
        </mxCell>
        <mxCell id="J2BQLT2Hye8kWJKoQPPj-42" value="TCP Raw audio" style="endArrow=classic;html=1;rounded=0;exitX=1;exitY=0.75;exitDx=0;exitDy=0;entryX=0;entryY=0.5;entryDx=0;entryDy=0;" edge="1" parent="1" source="J2BQLT2Hye8kWJKoQPPj-14" target="J2BQLT2Hye8kWJKoQPPj-41">
          <mxGeometry width="50" height="50" relative="1" as="geometry">
            <mxPoint x="790" y="242" as="sourcePoint" />
            <mxPoint x="910" y="242" as="targetPoint" />
          </mxGeometry>
        </mxCell>
        <mxCell id="J2BQLT2Hye8kWJKoQPPj-45" value="influxdb" style="rounded=0;whiteSpace=wrap;html=1;" vertex="1" parent="1">
          <mxGeometry x="1330" y="262" width="60" height="20" as="geometry" />
        </mxCell>
        <mxCell id="J2BQLT2Hye8kWJKoQPPj-46" value="HTTP POST" style="endArrow=classic;html=1;rounded=0;exitX=1;exitY=0.5;exitDx=0;exitDy=0;entryX=0;entryY=0.5;entryDx=0;entryDy=0;" edge="1" parent="1" source="J2BQLT2Hye8kWJKoQPPj-41" target="J2BQLT2Hye8kWJKoQPPj-45">
          <mxGeometry width="50" height="50" relative="1" as="geometry">
            <mxPoint x="1030" y="242" as="sourcePoint" />
            <mxPoint x="1150" y="247" as="targetPoint" />
          </mxGeometry>
        </mxCell>
        <mxCell id="J2BQLT2Hye8kWJKoQPPj-48" value="imgmaker" style="rounded=0;whiteSpace=wrap;html=1;" vertex="1" parent="1">
          <mxGeometry x="1340" y="212" width="90" height="20" as="geometry" />
        </mxCell>
        <mxCell id="J2BQLT2Hye8kWJKoQPPj-50" value="TCP Raw video&lt;br&gt;(single frame)" style="endArrow=classic;html=1;rounded=0;exitX=1;exitY=0.25;exitDx=0;exitDy=0;entryX=0;entryY=0.5;entryDx=0;entryDy=0;" edge="1" parent="1" source="J2BQLT2Hye8kWJKoQPPj-14" target="J2BQLT2Hye8kWJKoQPPj-48">
          <mxGeometry width="50" height="50" relative="1" as="geometry">
            <mxPoint x="790" y="242" as="sourcePoint" />
            <mxPoint x="910" y="242" as="targetPoint" />
          </mxGeometry>
        </mxCell>
        <mxCell id="J2BQLT2Hye8kWJKoQPPj-51" value="preview&lt;br&gt;images" style="ellipse;whiteSpace=wrap;html=1;" vertex="1" parent="1">
          <mxGeometry x="1510" y="197" width="80" height="50" as="geometry" />
        </mxCell>
        <mxCell id="J2BQLT2Hye8kWJKoQPPj-52" value="files" style="endArrow=classic;html=1;rounded=0;exitX=1;exitY=0.5;exitDx=0;exitDy=0;entryX=0;entryY=0.5;entryDx=0;entryDy=0;" edge="1" parent="1" source="J2BQLT2Hye8kWJKoQPPj-48" target="J2BQLT2Hye8kWJKoQPPj-51">
          <mxGeometry width="50" height="50" relative="1" as="geometry">
            <mxPoint x="790" y="284" as="sourcePoint" />
            <mxPoint x="910" y="282" as="targetPoint" />
          </mxGeometry>
        </mxCell>
        <mxCell id="J2BQLT2Hye8kWJKoQPPj-53" value="vocto.php" style="rounded=0;whiteSpace=wrap;html=1;" vertex="1" parent="1">
          <mxGeometry x="1280" y="430" width="90" height="20" as="geometry" />
        </mxCell>
        <mxCell id="J2BQLT2Hye8kWJKoQPPj-54" value="TCP control commands" style="endArrow=classic;html=1;rounded=0;entryX=1;entryY=1;entryDx=0;entryDy=0;exitX=0;exitY=0.5;exitDx=0;exitDy=0;" edge="1" parent="1" source="J2BQLT2Hye8kWJKoQPPj-53" target="J2BQLT2Hye8kWJKoQPPj-14">
          <mxGeometry width="50" height="50" relative="1" as="geometry">
            <mxPoint x="970" y="632" as="sourcePoint" />
            <mxPoint x="1020" y="582" as="targetPoint" />
          </mxGeometry>
        </mxCell>
        <mxCell id="J2BQLT2Hye8kWJKoQPPj-55" value="" style="endArrow=classic;html=1;rounded=0;entryX=0.75;entryY=0;entryDx=0;entryDy=0;exitX=0.5;exitY=1;exitDx=0;exitDy=0;" edge="1" parent="1" source="J2BQLT2Hye8kWJKoQPPj-51" target="J2BQLT2Hye8kWJKoQPPj-53">
          <mxGeometry width="50" height="50" relative="1" as="geometry">
            <mxPoint x="1130" y="582" as="sourcePoint" />
            <mxPoint x="1180" y="532" as="targetPoint" />
          </mxGeometry>
        </mxCell>
        <mxCell id="J2BQLT2Hye8kWJKoQPPj-56" value="" style="endArrow=classic;html=1;rounded=0;entryX=0.5;entryY=0;entryDx=0;entryDy=0;exitX=0.5;exitY=1;exitDx=0;exitDy=0;" edge="1" parent="1" source="J2BQLT2Hye8kWJKoQPPj-45" target="J2BQLT2Hye8kWJKoQPPj-53">
          <mxGeometry width="50" height="50" relative="1" as="geometry">
            <mxPoint x="1200" y="532" as="sourcePoint" />
            <mxPoint x="1250" y="482" as="targetPoint" />
          </mxGeometry>
        </mxCell>
        <mxCell id="J2BQLT2Hye8kWJKoQPPj-57" value="showbuilding.php" style="rounded=0;whiteSpace=wrap;html=1;" vertex="1" parent="1">
          <mxGeometry x="1501" y="430" width="100" height="20" as="geometry" />
        </mxCell>
        <mxCell id="J2BQLT2Hye8kWJKoQPPj-58" value="" style="endArrow=classic;html=1;rounded=0;entryX=0.25;entryY=0;entryDx=0;entryDy=0;exitX=0.75;exitY=1;exitDx=0;exitDy=0;" edge="1" parent="1" source="J2BQLT2Hye8kWJKoQPPj-45" target="J2BQLT2Hye8kWJKoQPPj-57">
          <mxGeometry width="50" height="50" relative="1" as="geometry">
            <mxPoint x="1370" y="292" as="sourcePoint" />
            <mxPoint x="1370" y="417" as="targetPoint" />
          </mxGeometry>
        </mxCell>
        <mxCell id="J2BQLT2Hye8kWJKoQPPj-59" value="" style="endArrow=classic;html=1;rounded=0;entryX=0.65;entryY=0.05;entryDx=0;entryDy=0;entryPerimeter=0;" edge="1" parent="1" target="J2BQLT2Hye8kWJKoQPPj-57">
          <mxGeometry width="50" height="50" relative="1" as="geometry">
            <mxPoint x="1550" y="252" as="sourcePoint" />
            <mxPoint x="1393" y="417" as="targetPoint" />
          </mxGeometry>
        </mxCell>
        <mxCell id="J2BQLT2Hye8kWJKoQPPj-60" value="fetcher" style="rounded=0;whiteSpace=wrap;html=1;" vertex="1" parent="1">
          <mxGeometry x="1060" y="662" width="60" height="20" as="geometry" />
        </mxCell>
        <mxCell id="J2BQLT2Hye8kWJKoQPPj-61" value="TCP MPEG-TS" style="endArrow=classic;html=1;rounded=0;exitX=0.5;exitY=1;exitDx=0;exitDy=0;entryX=0.5;entryY=0;entryDx=0;entryDy=0;" edge="1" parent="1" source="J2BQLT2Hye8kWJKoQPPj-36" target="J2BQLT2Hye8kWJKoQPPj-60">
          <mxGeometry width="50" height="50" relative="1" as="geometry">
            <mxPoint x="510" y="442" as="sourcePoint" />
            <mxPoint x="700" y="284" as="targetPoint" />
          </mxGeometry>
        </mxCell>
        <mxCell id="J2BQLT2Hye8kWJKoQPPj-62" value="HLS streams" style="ellipse;whiteSpace=wrap;html=1;" vertex="1" parent="1">
          <mxGeometry x="960" y="732" width="85" height="40" as="geometry" />
        </mxCell>
        <mxCell id="J2BQLT2Hye8kWJKoQPPj-63" value="files" style="endArrow=classic;html=1;rounded=0;exitX=0.25;exitY=1;exitDx=0;exitDy=0;entryX=0.5;entryY=0;entryDx=0;entryDy=0;" edge="1" parent="1" source="J2BQLT2Hye8kWJKoQPPj-60" target="J2BQLT2Hye8kWJKoQPPj-62">
          <mxGeometry width="50" height="50" relative="1" as="geometry">
            <mxPoint x="1570" y="232" as="sourcePoint" />
            <mxPoint x="1650" y="232" as="targetPoint" />
          </mxGeometry>
        </mxCell>
        <mxCell id="J2BQLT2Hye8kWJKoQPPj-64" value="review dumps" style="ellipse;whiteSpace=wrap;html=1;" vertex="1" parent="1">
          <mxGeometry x="1120" y="732" width="85" height="40" as="geometry" />
        </mxCell>
        <mxCell id="J2BQLT2Hye8kWJKoQPPj-65" value="files" style="endArrow=classic;html=1;rounded=0;exitX=0.75;exitY=1;exitDx=0;exitDy=0;entryX=0.6;entryY=0;entryDx=0;entryDy=0;entryPerimeter=0;" edge="1" parent="1" source="J2BQLT2Hye8kWJKoQPPj-60" target="J2BQLT2Hye8kWJKoQPPj-64">
          <mxGeometry width="50" height="50" relative="1" as="geometry">
            <mxPoint x="1085" y="692" as="sourcePoint" />
            <mxPoint x="1013" y="742" as="targetPoint" />
          </mxGeometry>
        </mxCell>
        <mxCell id="J2BQLT2Hye8kWJKoQPPj-66" value="nginx" style="rounded=0;whiteSpace=wrap;html=1;" vertex="1" parent="1">
          <mxGeometry x="1060" y="832" width="60" height="20" as="geometry" />
        </mxCell>
        <mxCell id="J2BQLT2Hye8kWJKoQPPj-67" value="files" style="endArrow=classic;html=1;rounded=0;exitX=0.5;exitY=1;exitDx=0;exitDy=0;entryX=0.25;entryY=0;entryDx=0;entryDy=0;" edge="1" parent="1" source="J2BQLT2Hye8kWJKoQPPj-62" target="J2BQLT2Hye8kWJKoQPPj-66">
          <mxGeometry width="50" height="50" relative="1" as="geometry">
            <mxPoint x="1085" y="692" as="sourcePoint" />
            <mxPoint x="1013" y="742" as="targetPoint" />
          </mxGeometry>
        </mxCell>
        <mxCell id="J2BQLT2Hye8kWJKoQPPj-68" value="files" style="endArrow=classic;html=1;rounded=0;exitX=0.5;exitY=1;exitDx=0;exitDy=0;entryX=0.75;entryY=0;entryDx=0;entryDy=0;" edge="1" parent="1" source="J2BQLT2Hye8kWJKoQPPj-64" target="J2BQLT2Hye8kWJKoQPPj-66">
          <mxGeometry width="50" height="50" relative="1" as="geometry">
            <mxPoint x="1095" y="702" as="sourcePoint" />
            <mxPoint x="1023" y="752" as="targetPoint" />
          </mxGeometry>
        </mxCell>
        <mxCell id="J2BQLT2Hye8kWJKoQPPj-69" value="nginx" style="rounded=0;whiteSpace=wrap;html=1;" vertex="1" parent="1">
          <mxGeometry x="1060" y="1048" width="60" height="20" as="geometry" />
        </mxCell>
        <mxCell id="J2BQLT2Hye8kWJKoQPPj-70" value="HTTP GET" style="endArrow=classic;html=1;rounded=0;exitX=0.5;exitY=0;exitDx=0;exitDy=0;entryX=0.5;entryY=1;entryDx=0;entryDy=0;" edge="1" parent="1" source="J2BQLT2Hye8kWJKoQPPj-69" target="J2BQLT2Hye8kWJKoQPPj-66">
          <mxGeometry width="50" height="50" relative="1" as="geometry">
            <mxPoint x="1370" y="282" as="sourcePoint" />
            <mxPoint x="990" y="844" as="targetPoint" />
          </mxGeometry>
        </mxCell>
        <mxCell id="J2BQLT2Hye8kWJKoQPPj-71" value="streamdump" style="rounded=0;whiteSpace=wrap;html=1;" vertex="1" parent="1">
          <mxGeometry x="530" y="652" width="80" height="20" as="geometry" />
        </mxCell>
        <mxCell id="J2BQLT2Hye8kWJKoQPPj-72" value="streamdump" style="rounded=0;whiteSpace=wrap;html=1;" vertex="1" parent="1">
          <mxGeometry x="610" y="652" width="80" height="20" as="geometry" />
        </mxCell>
        <mxCell id="J2BQLT2Hye8kWJKoQPPj-73" value="streamdump" style="rounded=0;whiteSpace=wrap;html=1;" vertex="1" parent="1">
          <mxGeometry x="690" y="652" width="80" height="20" as="geometry" />
        </mxCell>
        <mxCell id="J2BQLT2Hye8kWJKoQPPj-74" value="TCP MPEG-TS" style="endArrow=classic;html=1;rounded=0;exitX=0.5;exitY=1;exitDx=0;exitDy=0;entryX=0.5;entryY=0;entryDx=0;entryDy=0;" edge="1" parent="1" source="J2BQLT2Hye8kWJKoQPPj-28" target="J2BQLT2Hye8kWJKoQPPj-71">
          <mxGeometry width="50" height="50" relative="1" as="geometry">
            <mxPoint x="510" y="442" as="sourcePoint" />
            <mxPoint x="700" y="284" as="targetPoint" />
          </mxGeometry>
        </mxCell>
        <mxCell id="J2BQLT2Hye8kWJKoQPPj-75" value="TCP MPEG-TS" style="endArrow=classic;html=1;rounded=0;exitX=0.5;exitY=1;exitDx=0;exitDy=0;entryX=0.5;entryY=0;entryDx=0;entryDy=0;" edge="1" parent="1" source="J2BQLT2Hye8kWJKoQPPj-12" target="J2BQLT2Hye8kWJKoQPPj-72">
          <mxGeometry width="50" height="50" relative="1" as="geometry">
            <mxPoint x="520" y="452" as="sourcePoint" />
            <mxPoint x="710" y="294" as="targetPoint" />
          </mxGeometry>
        </mxCell>
        <mxCell id="J2BQLT2Hye8kWJKoQPPj-76" value="TCP MPEG-TS" style="endArrow=classic;html=1;rounded=0;exitX=0.25;exitY=1;exitDx=0;exitDy=0;entryX=0.5;entryY=0;entryDx=0;entryDy=0;" edge="1" parent="1" source="J2BQLT2Hye8kWJKoQPPj-36" target="J2BQLT2Hye8kWJKoQPPj-73">
          <mxGeometry width="50" height="50" relative="1" as="geometry">
            <mxPoint x="530" y="462" as="sourcePoint" />
            <mxPoint x="720" y="304" as="targetPoint" />
          </mxGeometry>
        </mxCell>
        <mxCell id="J2BQLT2Hye8kWJKoQPPj-77" value="streamdump&lt;br&gt;fiiles" style="ellipse;whiteSpace=wrap;html=1;" vertex="1" parent="1">
          <mxGeometry x="600" y="748" width="85" height="40" as="geometry" />
        </mxCell>
        <mxCell id="J2BQLT2Hye8kWJKoQPPj-78" value="files" style="endArrow=classic;html=1;rounded=0;exitX=0.6;exitY=1.1;exitDx=0;exitDy=0;entryX=0;entryY=0;entryDx=0;entryDy=0;exitPerimeter=0;" edge="1" parent="1" source="J2BQLT2Hye8kWJKoQPPj-71" target="J2BQLT2Hye8kWJKoQPPj-77">
          <mxGeometry width="50" height="50" relative="1" as="geometry">
            <mxPoint x="1085" y="692" as="sourcePoint" />
            <mxPoint x="1013" y="742" as="targetPoint" />
          </mxGeometry>
        </mxCell>
        <mxCell id="J2BQLT2Hye8kWJKoQPPj-79" value="files" style="endArrow=classic;html=1;rounded=0;exitX=0.5;exitY=1;exitDx=0;exitDy=0;" edge="1" parent="1" source="J2BQLT2Hye8kWJKoQPPj-72" target="J2BQLT2Hye8kWJKoQPPj-77">
          <mxGeometry width="50" height="50" relative="1" as="geometry">
            <mxPoint x="1095" y="702" as="sourcePoint" />
            <mxPoint x="1023" y="752" as="targetPoint" />
          </mxGeometry>
        </mxCell>
        <mxCell id="J2BQLT2Hye8kWJKoQPPj-80" value="files" style="endArrow=classic;html=1;rounded=0;exitX=0.5;exitY=1;exitDx=0;exitDy=0;entryX=1;entryY=0;entryDx=0;entryDy=0;" edge="1" parent="1" source="J2BQLT2Hye8kWJKoQPPj-73" target="J2BQLT2Hye8kWJKoQPPj-77">
          <mxGeometry width="50" height="50" relative="1" as="geometry">
            <mxPoint x="1105" y="712" as="sourcePoint" />
            <mxPoint x="1033" y="762" as="targetPoint" />
          </mxGeometry>
        </mxCell>
        <mxCell id="J2BQLT2Hye8kWJKoQPPj-81" value="local dump" style="ellipse;whiteSpace=wrap;html=1;" vertex="1" parent="1">
          <mxGeometry x="420" y="142" width="75" height="20" as="geometry" />
        </mxCell>
        <mxCell id="J2BQLT2Hye8kWJKoQPPj-83" value="local dump" style="ellipse;whiteSpace=wrap;html=1;" vertex="1" parent="1">
          <mxGeometry x="355" y="424" width="75" height="20" as="geometry" />
        </mxCell>
        <mxCell id="J2BQLT2Hye8kWJKoQPPj-84" value="SReview" style="rounded=1;whiteSpace=wrap;html=1;" vertex="1" parent="1">
          <mxGeometry x="1360" y="892" width="120" height="60" as="geometry" />
        </mxCell>
        <mxCell id="J2BQLT2Hye8kWJKoQPPj-85" value="HTTP GET" style="endArrow=classic;html=1;rounded=0;exitX=1;exitY=0.5;exitDx=0;exitDy=0;entryX=0;entryY=0.25;entryDx=0;entryDy=0;" edge="1" parent="1" source="J2BQLT2Hye8kWJKoQPPj-66" target="J2BQLT2Hye8kWJKoQPPj-84">
          <mxGeometry width="50" height="50" relative="1" as="geometry">
            <mxPoint x="1100" y="862" as="sourcePoint" />
            <mxPoint x="1100" y="1002" as="targetPoint" />
          </mxGeometry>
        </mxCell>
        <mxCell id="J2BQLT2Hye8kWJKoQPPj-86" value="End-users" style="rounded=1;whiteSpace=wrap;html=1;" vertex="1" parent="1">
          <mxGeometry x="760" y="1102" width="80" height="30" as="geometry" />
        </mxCell>
        <mxCell id="J2BQLT2Hye8kWJKoQPPj-87" value="HTTP GET" style="endArrow=classic;html=1;rounded=0;exitX=1;exitY=0.5;exitDx=0;exitDy=0;entryX=0;entryY=0.5;entryDx=0;entryDy=0;" edge="1" parent="1" source="J2BQLT2Hye8kWJKoQPPj-86" target="J2BQLT2Hye8kWJKoQPPj-69">
          <mxGeometry width="50" height="50" relative="1" as="geometry">
            <mxPoint x="1100" y="862" as="sourcePoint" />
            <mxPoint x="1100" y="1002" as="targetPoint" />
          </mxGeometry>
        </mxCell>
        <mxCell id="J2BQLT2Hye8kWJKoQPPj-88" value="nginx" style="rounded=0;whiteSpace=wrap;html=1;" vertex="1" parent="1">
          <mxGeometry x="770" y="922" width="60" height="20" as="geometry" />
        </mxCell>
        <mxCell id="J2BQLT2Hye8kWJKoQPPj-89" value="HLS Player" style="rounded=0;whiteSpace=wrap;html=1;" vertex="1" parent="1">
          <mxGeometry x="760" y="902" width="80" height="20" as="geometry" />
        </mxCell>
        <mxCell id="J2BQLT2Hye8kWJKoQPPj-91" value="HTTP GET" style="endArrow=classic;html=1;rounded=0;exitX=0.5;exitY=0;exitDx=0;exitDy=0;entryX=0.5;entryY=1;entryDx=0;entryDy=0;" edge="1" parent="1" source="J2BQLT2Hye8kWJKoQPPj-86" target="J2BQLT2Hye8kWJKoQPPj-88">
          <mxGeometry width="50" height="50" relative="1" as="geometry">
            <mxPoint x="850" y="1127" as="sourcePoint" />
            <mxPoint x="1070" y="1012" as="targetPoint" />
          </mxGeometry>
        </mxCell>
        <mxCell id="J2BQLT2Hye8kWJKoQPPj-92" value="Grafana" style="rounded=0;whiteSpace=wrap;html=1;" vertex="1" parent="1">
          <mxGeometry x="1400" y="430" width="70" height="20" as="geometry" />
        </mxCell>
        <mxCell id="J2BQLT2Hye8kWJKoQPPj-94" value="" style="endArrow=classic;html=1;rounded=0;entryX=0.5;entryY=0;entryDx=0;entryDy=0;exitX=0.633;exitY=0.9;exitDx=0;exitDy=0;exitPerimeter=0;" edge="1" parent="1" source="J2BQLT2Hye8kWJKoQPPj-45" target="J2BQLT2Hye8kWJKoQPPj-92">
          <mxGeometry width="50" height="50" relative="1" as="geometry">
            <mxPoint x="1370" y="292" as="sourcePoint" />
            <mxPoint x="1335" y="440" as="targetPoint" />
          </mxGeometry>
        </mxCell>
        <mxCell id="J2BQLT2Hye8kWJKoQPPj-95" value="control API" style="rounded=0;whiteSpace=wrap;html=1;" vertex="1" parent="1">
          <mxGeometry x="1300" y="142" width="55" height="30" as="geometry" />
        </mxCell>
        <mxCell id="J2BQLT2Hye8kWJKoQPPj-96" value="postgresql" style="rounded=0;whiteSpace=wrap;html=1;" vertex="1" parent="1">
          <mxGeometry x="1436" y="152" width="60" height="20" as="geometry" />
        </mxCell>
        <mxCell id="J2BQLT2Hye8kWJKoQPPj-97" value="" style="endArrow=classic;startArrow=classic;html=1;rounded=0;entryX=0;entryY=0.25;entryDx=0;entryDy=0;exitX=1;exitY=0.5;exitDx=0;exitDy=0;" edge="1" parent="1" source="J2BQLT2Hye8kWJKoQPPj-95" target="J2BQLT2Hye8kWJKoQPPj-96">
          <mxGeometry width="50" height="50" relative="1" as="geometry">
            <mxPoint x="1295" y="162" as="sourcePoint" />
            <mxPoint x="1345" y="112" as="targetPoint" />
          </mxGeometry>
        </mxCell>
        <mxCell id="J2BQLT2Hye8kWJKoQPPj-101" value="A" style="rhombus;whiteSpace=wrap;html=1;fontStyle=1" vertex="1" parent="1">
          <mxGeometry x="710" y="202" width="20" height="20" as="geometry" />
        </mxCell>
        <mxCell id="J2BQLT2Hye8kWJKoQPPj-102" value="A" style="rhombus;whiteSpace=wrap;html=1;fontStyle=1" vertex="1" parent="1">
          <mxGeometry x="710" y="289" width="20" height="20" as="geometry" />
        </mxCell>
        <mxCell id="J2BQLT2Hye8kWJKoQPPj-103" value="A" style="rhombus;whiteSpace=wrap;html=1;fontStyle=1" vertex="1" parent="1">
          <mxGeometry x="1090" y="642" width="20" height="20" as="geometry" />
        </mxCell>
        <mxCell id="J2BQLT2Hye8kWJKoQPPj-104" value="A" style="rhombus;whiteSpace=wrap;html=1;fontStyle=1" vertex="1" parent="1">
          <mxGeometry x="750" y="672" width="20" height="20" as="geometry" />
        </mxCell>
        <mxCell id="J2BQLT2Hye8kWJKoQPPj-105" value="A" style="rhombus;whiteSpace=wrap;html=1;fontStyle=1" vertex="1" parent="1">
          <mxGeometry x="660" y="672" width="20" height="20" as="geometry" />
        </mxCell>
        <mxCell id="J2BQLT2Hye8kWJKoQPPj-106" value="A" style="rhombus;whiteSpace=wrap;html=1;fontStyle=1" vertex="1" parent="1">
          <mxGeometry x="540" y="672" width="20" height="20" as="geometry" />
        </mxCell>
        <mxCell id="J2BQLT2Hye8kWJKoQPPj-107" value="A" style="rhombus;whiteSpace=wrap;html=1;fontStyle=1" vertex="1" parent="1">
          <mxGeometry x="100" y="1028" width="20" height="20" as="geometry" />
        </mxCell>
        <mxCell id="J2BQLT2Hye8kWJKoQPPj-108" value="Any object marked with this talks to the control API" style="text;html=1;strokeColor=none;fillColor=none;spacing=5;spacingTop=-20;whiteSpace=wrap;overflow=hidden;rounded=0;" vertex="1" parent="1">
          <mxGeometry x="125" y="1032" width="190" height="30" as="geometry" />
        </mxCell>
        <mxCell id="J2BQLT2Hye8kWJKoQPPj-109" value="A" style="rhombus;whiteSpace=wrap;html=1;fontStyle=1" vertex="1" parent="1">
          <mxGeometry x="1280" y="407" width="20" height="20" as="geometry" />
        </mxCell>
        <mxCell id="J2BQLT2Hye8kWJKoQPPj-110" value="A" style="rhombus;whiteSpace=wrap;html=1;fontStyle=1" vertex="1" parent="1">
          <mxGeometry x="1581" y="410" width="20" height="20" as="geometry" />
        </mxCell>
        <mxCell id="J2BQLT2Hye8kWJKoQPPj-111" value="A" style="rhombus;whiteSpace=wrap;html=1;fontStyle=1" vertex="1" parent="1">
          <mxGeometry x="1375" y="192" width="20" height="20" as="geometry" />
        </mxCell>
        <mxCell id="J2BQLT2Hye8kWJKoQPPj-113" value="Control server" style="text;html=1;strokeColor=none;fillColor=none;align=center;verticalAlign=middle;whiteSpace=wrap;rounded=0;fontStyle=1" vertex="1" parent="1">
          <mxGeometry x="1340" y="94" width="140" height="30" as="geometry" />
        </mxCell>
        <mxCell id="J2BQLT2Hye8kWJKoQPPj-114" value="streambackend" style="text;html=1;strokeColor=none;fillColor=none;align=center;verticalAlign=middle;whiteSpace=wrap;rounded=0;fontStyle=1" vertex="1" parent="1">
          <mxGeometry x="930" y="611" width="120" height="30" as="geometry" />
        </mxCell>
        <mxCell id="J2BQLT2Hye8kWJKoQPPj-115" value="streamfrontend" style="text;html=1;strokeColor=none;fillColor=none;align=center;verticalAlign=middle;whiteSpace=wrap;rounded=0;fontStyle=1" vertex="1" parent="1">
          <mxGeometry x="1042.5" y="1072" width="95" height="30" as="geometry" />
        </mxCell>
        <mxCell id="J2BQLT2Hye8kWJKoQPPj-116" value="web0" style="text;html=1;strokeColor=none;fillColor=none;align=center;verticalAlign=middle;whiteSpace=wrap;rounded=0;fontStyle=1" vertex="1" parent="1">
          <mxGeometry x="767" y="865" width="60" height="30" as="geometry" />
        </mxCell>
        <mxCell id="J2BQLT2Hye8kWJKoQPPj-117" value="&lt;font style=&quot;font-size: 18px;&quot;&gt;Room&lt;/font&gt;" style="text;html=1;strokeColor=none;fillColor=none;align=center;verticalAlign=middle;whiteSpace=wrap;rounded=0;" vertex="1" parent="1">
          <mxGeometry x="250" y="82" width="60" height="30" as="geometry" />
        </mxCell>
        <mxCell id="J2BQLT2Hye8kWJKoQPPj-119" value="streamdump (external/internal)" style="text;html=1;strokeColor=none;fillColor=none;align=center;verticalAlign=middle;whiteSpace=wrap;rounded=0;fontStyle=1" vertex="1" parent="1">
          <mxGeometry x="610" y="802" width="60" height="30" as="geometry" />
        </mxCell>
        <mxCell id="J2BQLT2Hye8kWJKoQPPj-127" value="devroom managers" style="rounded=1;whiteSpace=wrap;html=1;" vertex="1" parent="1">
          <mxGeometry x="1316" y="609" width="120" height="30" as="geometry" />
        </mxCell>
        <mxCell id="J2BQLT2Hye8kWJKoQPPj-128" value="VOCs" style="rounded=1;whiteSpace=wrap;html=1;" vertex="1" parent="1">
          <mxGeometry x="1515.5" y="609" width="69" height="30" as="geometry" />
        </mxCell>
        <mxCell id="J2BQLT2Hye8kWJKoQPPj-129" value="HTTP" style="endArrow=classic;startArrow=classic;html=1;rounded=0;entryX=0.5;entryY=1;entryDx=0;entryDy=0;exitX=0.5;exitY=0;exitDx=0;exitDy=0;" edge="1" parent="1" source="J2BQLT2Hye8kWJKoQPPj-127" target="J2BQLT2Hye8kWJKoQPPj-53">
          <mxGeometry width="50" height="50" relative="1" as="geometry">
            <mxPoint x="1300" y="584" as="sourcePoint" />
            <mxPoint x="1350" y="534" as="targetPoint" />
          </mxGeometry>
        </mxCell>
        <mxCell id="J2BQLT2Hye8kWJKoQPPj-131" value="HTTP" style="endArrow=classic;startArrow=classic;html=1;rounded=0;exitX=0.25;exitY=0;exitDx=0;exitDy=0;entryX=0.75;entryY=1;entryDx=0;entryDy=0;" edge="1" parent="1" source="J2BQLT2Hye8kWJKoQPPj-128" target="J2BQLT2Hye8kWJKoQPPj-53">
          <mxGeometry width="50" height="50" relative="1" as="geometry">
            <mxPoint x="1487" y="606" as="sourcePoint" />
            <mxPoint x="1436" y="447" as="targetPoint" />
          </mxGeometry>
        </mxCell>
        <mxCell id="J2BQLT2Hye8kWJKoQPPj-132" value="HTTP" style="endArrow=classic;startArrow=classic;html=1;rounded=0;exitX=0.5;exitY=0;exitDx=0;exitDy=0;entryX=0.5;entryY=1;entryDx=0;entryDy=0;" edge="1" parent="1" source="J2BQLT2Hye8kWJKoQPPj-128" target="J2BQLT2Hye8kWJKoQPPj-92">
          <mxGeometry width="50" height="50" relative="1" as="geometry">
            <mxPoint x="1560" y="619" as="sourcePoint" />
            <mxPoint x="1358" y="460" as="targetPoint" />
          </mxGeometry>
        </mxCell>
        <mxCell id="J2BQLT2Hye8kWJKoQPPj-133" value="HTTP" style="endArrow=classic;startArrow=classic;html=1;rounded=0;entryX=0.57;entryY=0.95;entryDx=0;entryDy=0;entryPerimeter=0;" edge="1" parent="1" target="J2BQLT2Hye8kWJKoQPPj-57">
          <mxGeometry width="50" height="50" relative="1" as="geometry">
            <mxPoint x="1560" y="614" as="sourcePoint" />
            <mxPoint x="1445" y="460" as="targetPoint" />
          </mxGeometry>
        </mxCell>
        <mxCell id="J2BQLT2Hye8kWJKoQPPj-136" value="&lt;font style=&quot;font-size: 24px;&quot;&gt;FOSDEM video, overview schema&lt;/font&gt;" style="text;html=1;strokeColor=none;fillColor=none;align=center;verticalAlign=middle;whiteSpace=wrap;rounded=0;" vertex="1" parent="1">
          <mxGeometry x="560" y="20" width="450" height="30" as="geometry" />
        </mxCell>
        <mxCell id="GihmJb_MI6Jc64lwhvXT-1" value="audio mixer" style="rounded=0;whiteSpace=wrap;html=1;" vertex="1" parent="1">
          <mxGeometry x="290" y="202" width="90" height="20" as="geometry" />
        </mxCell>
        <mxCell id="GihmJb_MI6Jc64lwhvXT-2" value="" style="endArrow=classic;html=1;rounded=0;exitX=0;exitY=0.25;exitDx=0;exitDy=0;entryX=0.75;entryY=1;entryDx=0;entryDy=0;" edge="1" parent="1" source="GihmJb_MI6Jc64lwhvXT-1" target="J2BQLT2Hye8kWJKoQPPj-1">
          <mxGeometry width="50" height="50" relative="1" as="geometry">
            <mxPoint x="382" y="377" as="sourcePoint" />
            <mxPoint x="320" y="220" as="targetPoint" />
          </mxGeometry>
        </mxCell>
        <mxCell id="GihmJb_MI6Jc64lwhvXT-7" value="analog audio" style="edgeLabel;html=1;align=center;verticalAlign=middle;resizable=0;points=[];" connectable="0" vertex="1" parent="GihmJb_MI6Jc64lwhvXT-2">
          <mxGeometry x="0.0619" y="-1" relative="1" as="geometry">
            <mxPoint as="offset" />
          </mxGeometry>
        </mxCell>
        <mxCell id="GihmJb_MI6Jc64lwhvXT-3" value="aes67" style="rounded=0;whiteSpace=wrap;html=1;" vertex="1" parent="1">
          <mxGeometry x="390" y="182" width="50" height="20" as="geometry" />
        </mxCell>
        <mxCell id="GihmJb_MI6Jc64lwhvXT-4" value="aes67" style="rounded=0;whiteSpace=wrap;html=1;" vertex="1" parent="1">
          <mxGeometry x="391" y="387" width="50" height="20" as="geometry" />
        </mxCell>
        <mxCell id="GihmJb_MI6Jc64lwhvXT-5" value="" style="endArrow=classic;html=1;rounded=0;exitX=0.5;exitY=0;exitDx=0;exitDy=0;entryX=0.5;entryY=1;entryDx=0;entryDy=0;" edge="1" parent="1" source="GihmJb_MI6Jc64lwhvXT-4" target="GihmJb_MI6Jc64lwhvXT-3">
          <mxGeometry width="50" height="50" relative="1" as="geometry">
            <mxPoint x="382" y="377" as="sourcePoint" />
            <mxPoint x="330" y="329" as="targetPoint" />
          </mxGeometry>
        </mxCell>
        <mxCell id="GihmJb_MI6Jc64lwhvXT-6" value="RTP" style="edgeLabel;html=1;align=center;verticalAlign=middle;resizable=0;points=[];" connectable="0" vertex="1" parent="GihmJb_MI6Jc64lwhvXT-5">
          <mxGeometry x="-0.1055" y="1" relative="1" as="geometry">
            <mxPoint as="offset" />
          </mxGeometry>
        </mxCell>
      </root>
    </mxGraphModel>
  </diagram>
  <diagram id="8p-_fRr7wigr-wo_pzes" name="room-software">
    <mxGraphModel grid="1" page="1" gridSize="10" guides="1" tooltips="1" connect="1" arrows="1" fold="1" pageScale="1" pageWidth="2336" pageHeight="1654" math="0" shadow="0">
      <root>
        <mxCell id="0" />
        <mxCell id="1" parent="0" />
        <mxCell id="pEEGsxXiU1uAI_5blDyY-148" value="&lt;b&gt;&lt;br&gt;&lt;/b&gt;" style="rounded=0;whiteSpace=wrap;html=1;" vertex="1" parent="1">
          <mxGeometry x="211" y="780" width="1160" height="590" as="geometry" />
        </mxCell>
        <mxCell id="pEEGsxXiU1uAI_5blDyY-29" value="&lt;b&gt;&lt;br&gt;&lt;/b&gt;" style="rounded=0;whiteSpace=wrap;html=1;" vertex="1" parent="1">
          <mxGeometry x="267" y="156" width="1128" height="540" as="geometry" />
        </mxCell>
        <mxCell id="pEEGsxXiU1uAI_5blDyY-16" value="sproxy" style="rounded=0;whiteSpace=wrap;html=1;" vertex="1" parent="1">
          <mxGeometry x="963" y="409" width="60" height="20" as="geometry" />
        </mxCell>
        <mxCell id="pEEGsxXiU1uAI_5blDyY-21" value="&lt;font style=&quot;font-size: 18px;&quot;&gt;Room setup, detailed&lt;/font&gt;" style="text;html=1;strokeColor=none;fillColor=none;align=center;verticalAlign=middle;whiteSpace=wrap;rounded=0;" vertex="1" parent="1">
          <mxGeometry x="162" y="10" width="369" height="100" as="geometry" />
        </mxCell>
        <mxCell id="pEEGsxXiU1uAI_5blDyY-31" value="video-receiver" style="rounded=0;whiteSpace=wrap;html=1;" vertex="1" parent="1">
          <mxGeometry x="843" y="177" width="195" height="60" as="geometry" />
        </mxCell>
        <mxCell id="pEEGsxXiU1uAI_5blDyY-35" value="/dev/video0&lt;div&gt;ms2131&lt;/div&gt;" style="rounded=0;whiteSpace=wrap;html=1;" vertex="1" parent="1">
          <mxGeometry x="1163" y="177" width="90" height="38" as="geometry" />
        </mxCell>
        <mxCell id="pEEGsxXiU1uAI_5blDyY-45" value="mjpeg" style="endArrow=classic;html=1;rounded=0;exitX=0;exitY=0.25;exitDx=0;exitDy=0;entryX=1;entryY=0.25;entryDx=0;entryDy=0;" edge="1" parent="1" source="pEEGsxXiU1uAI_5blDyY-35" target="pEEGsxXiU1uAI_5blDyY-31">
          <mxGeometry width="50" height="50" relative="1" as="geometry">
            <mxPoint x="458" y="382" as="sourcePoint" />
            <mxPoint x="399" y="237" as="targetPoint" />
          </mxGeometry>
        </mxCell>
        <mxCell id="pEEGsxXiU1uAI_5blDyY-52" value="aes67" style="rounded=0;whiteSpace=wrap;html=1;strokeColor=#BDBDBD;" vertex="1" parent="1">
          <mxGeometry x="351" y="622" width="50" height="20" as="geometry" />
        </mxCell>
        <mxCell id="pEEGsxXiU1uAI_5blDyY-53" value="&lt;div&gt;alsa hw0:0&lt;/div&gt;&lt;div&gt;ms2131&lt;/div&gt;" style="rounded=0;whiteSpace=wrap;html=1;" vertex="1" parent="1">
          <mxGeometry x="1163" y="227" width="90" height="38" as="geometry" />
        </mxCell>
        <mxCell id="pEEGsxXiU1uAI_5blDyY-54" value="PCM16/48khz" style="endArrow=classic;html=1;rounded=0;exitX=0;exitY=0.5;exitDx=0;exitDy=0;entryX=1;entryY=0.5;entryDx=0;entryDy=0;" edge="1" parent="1" source="pEEGsxXiU1uAI_5blDyY-53" target="pEEGsxXiU1uAI_5blDyY-31">
          <mxGeometry width="50" height="50" relative="1" as="geometry">
            <mxPoint x="1173" y="197" as="sourcePoint" />
            <mxPoint x="1043" y="295" as="targetPoint" />
          </mxGeometry>
        </mxCell>
        <mxCell id="pEEGsxXiU1uAI_5blDyY-56" value="h.264" style="endArrow=classic;html=1;rounded=0;exitX=0.75;exitY=1;exitDx=0;exitDy=0;entryX=0.5;entryY=0;entryDx=0;entryDy=0;" edge="1" parent="1" source="pEEGsxXiU1uAI_5blDyY-31" target="pEEGsxXiU1uAI_5blDyY-16">
          <mxGeometry width="50" height="50" relative="1" as="geometry">
            <mxPoint x="1173" y="197" as="sourcePoint" />
            <mxPoint x="1048" y="202" as="targetPoint" />
          </mxGeometry>
        </mxCell>
        <mxCell id="pEEGsxXiU1uAI_5blDyY-57" value="&lt;div&gt;opengl&lt;/div&gt;HDMI1" style="rounded=0;whiteSpace=wrap;html=1;" vertex="1" parent="1">
          <mxGeometry x="843" y="407" width="60" height="38" as="geometry" />
        </mxCell>
        <mxCell id="pEEGsxXiU1uAI_5blDyY-58" value="raw video" style="endArrow=classic;html=1;rounded=0;exitX=0.25;exitY=1;exitDx=0;exitDy=0;entryX=0.5;entryY=0;entryDx=0;entryDy=0;" edge="1" parent="1" source="pEEGsxXiU1uAI_5blDyY-31" target="pEEGsxXiU1uAI_5blDyY-57">
          <mxGeometry width="50" height="50" relative="1" as="geometry">
            <mxPoint x="999" y="247" as="sourcePoint" />
            <mxPoint x="1003" y="419" as="targetPoint" />
          </mxGeometry>
        </mxCell>
        <mxCell id="pEEGsxXiU1uAI_5blDyY-59" value="alsa playback&lt;div&gt;&amp;nbsp;hw1.0 ch.1&lt;div&gt;teensy&lt;/div&gt;&lt;/div&gt;" style="rounded=0;whiteSpace=wrap;html=1;strokeColor=#BDBDBD;" vertex="1" parent="1">
          <mxGeometry x="301" y="464" width="120" height="56" as="geometry" />
        </mxCell>
        <mxCell id="pEEGsxXiU1uAI_5blDyY-60" value="alsa record&lt;div&gt;&lt;span style=&quot;background-color: initial;&quot;&gt;&amp;nbsp;hw1.0 ch.2&lt;/span&gt;&lt;div&gt;&lt;div&gt;teensy&lt;/div&gt;&lt;/div&gt;&lt;/div&gt;" style="rounded=0;whiteSpace=wrap;html=1;" vertex="1" parent="1">
          <mxGeometry x="457" y="466" width="114" height="54" as="geometry" />
        </mxCell>
        <mxCell id="pEEGsxXiU1uAI_5blDyY-61" value="mixer ch1" style="rounded=0;whiteSpace=wrap;html=1;strokeColor=#BDBDBD;" vertex="1" parent="1">
          <mxGeometry x="344" y="350" width="60" height="72" as="geometry" />
        </mxCell>
        <mxCell id="pEEGsxXiU1uAI_5blDyY-65" value="mixer ch2" style="rounded=0;whiteSpace=wrap;html=1;" vertex="1" parent="1">
          <mxGeometry x="471" y="350" width="60" height="72" as="geometry" />
        </mxCell>
        <mxCell id="pEEGsxXiU1uAI_5blDyY-66" value="microphones" style="rounded=1;whiteSpace=wrap;html=1;" vertex="1" parent="1">
          <mxGeometry x="437" y="1470" width="80" height="30" as="geometry" />
        </mxCell>
        <mxCell id="pEEGsxXiU1uAI_5blDyY-68" value="" style="endArrow=classic;html=1;rounded=0;entryX=0.5;entryY=1;entryDx=0;entryDy=0;exitX=0.5;exitY=0;exitDx=0;exitDy=0;" edge="1" parent="1" source="pEEGsxXiU1uAI_5blDyY-66" target="pEEGsxXiU1uAI_5blDyY-139">
          <mxGeometry width="50" height="50" relative="1" as="geometry">
            <mxPoint x="-58" y="1230" as="sourcePoint" />
            <mxPoint x="506" y="1362" as="targetPoint" />
          </mxGeometry>
        </mxCell>
        <mxCell id="pEEGsxXiU1uAI_5blDyY-69" value="analog audio" style="edgeLabel;html=1;align=center;verticalAlign=middle;resizable=0;points=[];" connectable="0" vertex="1" parent="pEEGsxXiU1uAI_5blDyY-68">
          <mxGeometry x="-0.4052" y="-3" relative="1" as="geometry">
            <mxPoint as="offset" />
          </mxGeometry>
        </mxCell>
        <mxCell id="pEEGsxXiU1uAI_5blDyY-70" value="camera" style="rounded=1;whiteSpace=wrap;html=1;" vertex="1" parent="1">
          <mxGeometry x="763" y="50" width="80" height="30" as="geometry" />
        </mxCell>
        <mxCell id="pEEGsxXiU1uAI_5blDyY-71" value="HDMI input&lt;div&gt;&lt;/div&gt;&lt;div&gt;ms2131&lt;/div&gt;" style="rounded=0;whiteSpace=wrap;html=1;" vertex="1" parent="1">
          <mxGeometry x="1253" y="177" width="110" height="88" as="geometry" />
        </mxCell>
        <mxCell id="pEEGsxXiU1uAI_5blDyY-72" value="HDMI&lt;br&gt;" style="endArrow=classic;html=1;rounded=0;entryX=0.5;entryY=0;entryDx=0;entryDy=0;exitX=1;exitY=0.5;exitDx=0;exitDy=0;" edge="1" parent="1" source="pEEGsxXiU1uAI_5blDyY-70" target="pEEGsxXiU1uAI_5blDyY-71">
          <mxGeometry width="50" height="50" relative="1" as="geometry">
            <mxPoint x="-109" y="485" as="sourcePoint" />
            <mxPoint x="41" y="250" as="targetPoint" />
          </mxGeometry>
        </mxCell>
        <mxCell id="pEEGsxXiU1uAI_5blDyY-74" value="" style="endArrow=classic;html=1;rounded=0;entryX=0;entryY=0.5;entryDx=0;entryDy=0;exitX=0.75;exitY=0;exitDx=0;exitDy=0;" edge="1" parent="1" source="pEEGsxXiU1uAI_5blDyY-129" target="pEEGsxXiU1uAI_5blDyY-70">
          <mxGeometry width="50" height="50" relative="1" as="geometry">
            <mxPoint x="211" y="243" as="sourcePoint" />
            <mxPoint x="511" y="360" as="targetPoint" />
          </mxGeometry>
        </mxCell>
        <mxCell id="pEEGsxXiU1uAI_5blDyY-75" value="analog audio" style="edgeLabel;html=1;align=center;verticalAlign=middle;resizable=0;points=[];" connectable="0" vertex="1" parent="pEEGsxXiU1uAI_5blDyY-74">
          <mxGeometry x="-0.4052" y="-3" relative="1" as="geometry">
            <mxPoint as="offset" />
          </mxGeometry>
        </mxCell>
        <mxCell id="pEEGsxXiU1uAI_5blDyY-76" value="" style="endArrow=classic;html=1;rounded=0;entryX=0.5;entryY=1;entryDx=0;entryDy=0;exitX=0.5;exitY=0;exitDx=0;exitDy=0;" edge="1" parent="1" source="pEEGsxXiU1uAI_5blDyY-103" target="pEEGsxXiU1uAI_5blDyY-78">
          <mxGeometry width="50" height="50" relative="1" as="geometry">
            <mxPoint x="499" y="923.910400390625" as="sourcePoint" />
            <mxPoint x="501" y="687" as="targetPoint" />
          </mxGeometry>
        </mxCell>
        <mxCell id="pEEGsxXiU1uAI_5blDyY-77" value="RTP" style="edgeLabel;html=1;align=center;verticalAlign=middle;resizable=0;points=[];" connectable="0" vertex="1" parent="pEEGsxXiU1uAI_5blDyY-76">
          <mxGeometry x="-0.1055" y="1" relative="1" as="geometry">
            <mxPoint as="offset" />
          </mxGeometry>
        </mxCell>
        <mxCell id="pEEGsxXiU1uAI_5blDyY-78" value="aes67" style="rounded=0;whiteSpace=wrap;html=1;" vertex="1" parent="1">
          <mxGeometry x="474" y="622" width="50" height="20" as="geometry" />
        </mxCell>
        <mxCell id="pEEGsxXiU1uAI_5blDyY-79" value="" style="endArrow=classic;html=1;rounded=0;exitX=0.5;exitY=1;exitDx=0;exitDy=0;entryX=0.5;entryY=0;entryDx=0;entryDy=0;strokeColor=#BDBDBD;" edge="1" parent="1" source="pEEGsxXiU1uAI_5blDyY-52" target="pEEGsxXiU1uAI_5blDyY-102">
          <mxGeometry width="50" height="50" relative="1" as="geometry">
            <mxPoint x="509" y="933.910400390625" as="sourcePoint" />
            <mxPoint x="381" y="922" as="targetPoint" />
          </mxGeometry>
        </mxCell>
        <mxCell id="pEEGsxXiU1uAI_5blDyY-80" value="RTP" style="edgeLabel;html=1;align=center;verticalAlign=middle;resizable=0;points=[];strokeColor=#BDBDBD;" connectable="0" vertex="1" parent="pEEGsxXiU1uAI_5blDyY-79">
          <mxGeometry x="-0.1055" y="1" relative="1" as="geometry">
            <mxPoint as="offset" />
          </mxGeometry>
        </mxCell>
        <mxCell id="pEEGsxXiU1uAI_5blDyY-81" value="alsaloop" style="rounded=0;whiteSpace=wrap;html=1;strokeColor=#BDBDBD;" vertex="1" parent="1">
          <mxGeometry x="336" y="560" width="50" height="20" as="geometry" />
        </mxCell>
        <mxCell id="pEEGsxXiU1uAI_5blDyY-82" value="alsaloop" style="rounded=0;whiteSpace=wrap;html=1;" vertex="1" parent="1">
          <mxGeometry x="477" y="560" width="50" height="20" as="geometry" />
        </mxCell>
        <mxCell id="pEEGsxXiU1uAI_5blDyY-83" value="" style="endArrow=classic;html=1;rounded=0;entryX=0.5;entryY=0;entryDx=0;entryDy=0;exitX=0.5;exitY=1;exitDx=0;exitDy=0;strokeColor=#BDBDBD;" edge="1" parent="1" source="pEEGsxXiU1uAI_5blDyY-81" target="pEEGsxXiU1uAI_5blDyY-52">
          <mxGeometry width="50" height="50" relative="1" as="geometry">
            <mxPoint x="291" y="640" as="sourcePoint" />
            <mxPoint x="51" y="745" as="targetPoint" />
          </mxGeometry>
        </mxCell>
        <mxCell id="pEEGsxXiU1uAI_5blDyY-84" value="" style="endArrow=classic;html=1;rounded=0;entryX=0.5;entryY=0;entryDx=0;entryDy=0;exitX=0.5;exitY=1;exitDx=0;exitDy=0;strokeColor=#BDBDBD;" edge="1" parent="1" source="pEEGsxXiU1uAI_5blDyY-59" target="pEEGsxXiU1uAI_5blDyY-81">
          <mxGeometry width="50" height="50" relative="1" as="geometry">
            <mxPoint x="389" y="590" as="sourcePoint" />
            <mxPoint x="386" y="632" as="targetPoint" />
          </mxGeometry>
        </mxCell>
        <mxCell id="pEEGsxXiU1uAI_5blDyY-85" value="" style="endArrow=classic;html=1;rounded=0;entryX=0.5;entryY=1;entryDx=0;entryDy=0;exitX=0.5;exitY=0;exitDx=0;exitDy=0;" edge="1" parent="1" source="pEEGsxXiU1uAI_5blDyY-82" target="pEEGsxXiU1uAI_5blDyY-60">
          <mxGeometry width="50" height="50" relative="1" as="geometry">
            <mxPoint x="386" y="507" as="sourcePoint" />
            <mxPoint x="389" y="570" as="targetPoint" />
          </mxGeometry>
        </mxCell>
        <mxCell id="pEEGsxXiU1uAI_5blDyY-86" value="" style="endArrow=classic;html=1;rounded=0;exitX=0.5;exitY=0;exitDx=0;exitDy=0;entryX=0.5;entryY=1;entryDx=0;entryDy=0;" edge="1" parent="1" source="pEEGsxXiU1uAI_5blDyY-78" target="pEEGsxXiU1uAI_5blDyY-82">
          <mxGeometry width="50" height="50" relative="1" as="geometry">
            <mxPoint x="512" y="570" as="sourcePoint" />
            <mxPoint x="691" y="660" as="targetPoint" />
          </mxGeometry>
        </mxCell>
        <mxCell id="pEEGsxXiU1uAI_5blDyY-88" value="" style="endArrow=classic;html=1;rounded=0;entryX=0.5;entryY=0;entryDx=0;entryDy=0;exitX=0.5;exitY=1;exitDx=0;exitDy=0;strokeColor=#BDBDBD;" edge="1" parent="1" source="pEEGsxXiU1uAI_5blDyY-61" target="pEEGsxXiU1uAI_5blDyY-59">
          <mxGeometry width="50" height="50" relative="1" as="geometry">
            <mxPoint x="371" y="590" as="sourcePoint" />
            <mxPoint x="386" y="632" as="targetPoint" />
          </mxGeometry>
        </mxCell>
        <mxCell id="pEEGsxXiU1uAI_5blDyY-89" value="sproxy" style="rounded=0;whiteSpace=wrap;html=1;" vertex="1" parent="1">
          <mxGeometry x="921" y="1095" width="60" height="20" as="geometry" />
        </mxCell>
        <mxCell id="pEEGsxXiU1uAI_5blDyY-90" value="video-receiver" style="rounded=0;whiteSpace=wrap;html=1;" vertex="1" parent="1">
          <mxGeometry x="871" y="904" width="125" height="60" as="geometry" />
        </mxCell>
        <mxCell id="pEEGsxXiU1uAI_5blDyY-91" value="/dev/video0&lt;div&gt;ms2131&lt;/div&gt;" style="rounded=0;whiteSpace=wrap;html=1;" vertex="1" parent="1">
          <mxGeometry x="1121" y="904" width="90" height="38" as="geometry" />
        </mxCell>
        <mxCell id="pEEGsxXiU1uAI_5blDyY-92" value="mjpeg" style="endArrow=classic;html=1;rounded=0;exitX=0;exitY=0.25;exitDx=0;exitDy=0;entryX=1;entryY=0.25;entryDx=0;entryDy=0;" edge="1" parent="1" source="pEEGsxXiU1uAI_5blDyY-91" target="pEEGsxXiU1uAI_5blDyY-90">
          <mxGeometry width="50" height="50" relative="1" as="geometry">
            <mxPoint x="416" y="1109" as="sourcePoint" />
            <mxPoint x="357" y="964" as="targetPoint" />
          </mxGeometry>
        </mxCell>
        <mxCell id="pEEGsxXiU1uAI_5blDyY-93" value="&lt;div&gt;alsa hw0:0&lt;/div&gt;&lt;div&gt;ms2131&lt;/div&gt;" style="rounded=0;whiteSpace=wrap;html=1;" vertex="1" parent="1">
          <mxGeometry x="1121" y="954" width="90" height="38" as="geometry" />
        </mxCell>
        <mxCell id="pEEGsxXiU1uAI_5blDyY-94" value="PCM16/48khz&lt;div&gt;2ch&lt;/div&gt;" style="endArrow=classic;html=1;rounded=0;exitX=0;exitY=0.5;exitDx=0;exitDy=0;entryX=1;entryY=0.5;entryDx=0;entryDy=0;" edge="1" parent="1" source="pEEGsxXiU1uAI_5blDyY-93" target="pEEGsxXiU1uAI_5blDyY-90">
          <mxGeometry width="50" height="50" relative="1" as="geometry">
            <mxPoint x="1131" y="924" as="sourcePoint" />
            <mxPoint x="1001" y="1022" as="targetPoint" />
          </mxGeometry>
        </mxCell>
        <mxCell id="pEEGsxXiU1uAI_5blDyY-95" value="h.264&lt;div&gt;mpeg-ts&lt;/div&gt;" style="endArrow=classic;html=1;rounded=0;exitX=0.75;exitY=1;exitDx=0;exitDy=0;entryX=0.5;entryY=0;entryDx=0;entryDy=0;" edge="1" parent="1" source="pEEGsxXiU1uAI_5blDyY-90" target="pEEGsxXiU1uAI_5blDyY-89">
          <mxGeometry width="50" height="50" relative="1" as="geometry">
            <mxPoint x="1131" y="924" as="sourcePoint" />
            <mxPoint x="1006" y="929" as="targetPoint" />
          </mxGeometry>
        </mxCell>
        <mxCell id="pEEGsxXiU1uAI_5blDyY-96" value="&lt;div&gt;opengl&lt;/div&gt;HDMI1" style="rounded=0;whiteSpace=wrap;html=1;" vertex="1" parent="1">
          <mxGeometry x="801" y="1093" width="60" height="38" as="geometry" />
        </mxCell>
        <mxCell id="pEEGsxXiU1uAI_5blDyY-97" value="raw video" style="endArrow=classic;html=1;rounded=0;exitX=0.25;exitY=1;exitDx=0;exitDy=0;entryX=0.5;entryY=0;entryDx=0;entryDy=0;" edge="1" parent="1" source="pEEGsxXiU1uAI_5blDyY-90" target="pEEGsxXiU1uAI_5blDyY-96">
          <mxGeometry width="50" height="50" relative="1" as="geometry">
            <mxPoint x="957" y="974" as="sourcePoint" />
            <mxPoint x="961" y="1146" as="targetPoint" />
          </mxGeometry>
        </mxCell>
        <mxCell id="pEEGsxXiU1uAI_5blDyY-98" value="mixer ch1" style="rounded=0;whiteSpace=wrap;html=1;" vertex="1" parent="1">
          <mxGeometry x="340" y="1152" width="60" height="72" as="geometry" />
        </mxCell>
        <mxCell id="pEEGsxXiU1uAI_5blDyY-99" value="mixer ch2" style="rounded=0;whiteSpace=wrap;html=1;" vertex="1" parent="1">
          <mxGeometry x="467" y="1150" width="60" height="72" as="geometry" />
        </mxCell>
        <mxCell id="pEEGsxXiU1uAI_5blDyY-100" value="HDMI input&lt;div&gt;&lt;/div&gt;&lt;div&gt;ms2131&lt;/div&gt;" style="rounded=0;whiteSpace=wrap;html=1;" vertex="1" parent="1">
          <mxGeometry x="1211" y="904" width="110" height="88" as="geometry" />
        </mxCell>
        <mxCell id="pEEGsxXiU1uAI_5blDyY-102" value="aes67" style="rounded=0;whiteSpace=wrap;html=1;strokeColor=#BDBDBD;" vertex="1" parent="1">
          <mxGeometry x="353" y="792" width="50" height="20" as="geometry" />
        </mxCell>
        <mxCell id="pEEGsxXiU1uAI_5blDyY-103" value="aes67" style="rounded=0;whiteSpace=wrap;html=1;" vertex="1" parent="1">
          <mxGeometry x="475" y="792" width="50" height="20" as="geometry" />
        </mxCell>
        <mxCell id="pEEGsxXiU1uAI_5blDyY-106" value="alsaloop" style="rounded=0;whiteSpace=wrap;html=1;strokeColor=#BDBDBD;" vertex="1" parent="1">
          <mxGeometry x="344" y="850" width="50" height="20" as="geometry" />
        </mxCell>
        <mxCell id="pEEGsxXiU1uAI_5blDyY-110" value="alsa record&lt;div&gt;&lt;span style=&quot;background-color: initial;&quot;&gt;&amp;nbsp;hw1.0 ch.1&lt;/span&gt;&lt;div&gt;&lt;div&gt;teensy&lt;/div&gt;&lt;/div&gt;&lt;/div&gt;" style="rounded=0;whiteSpace=wrap;html=1;strokeColor=#BDBDBD;" vertex="1" parent="1">
          <mxGeometry x="312" y="900" width="114" height="54" as="geometry" />
        </mxCell>
        <mxCell id="pEEGsxXiU1uAI_5blDyY-111" value="" style="endArrow=classic;html=1;rounded=0;entryX=0.5;entryY=0;entryDx=0;entryDy=0;exitX=0.5;exitY=1;exitDx=0;exitDy=0;strokeColor=#BDBDBD;" edge="1" parent="1" source="pEEGsxXiU1uAI_5blDyY-102" target="pEEGsxXiU1uAI_5blDyY-106">
          <mxGeometry width="50" height="50" relative="1" as="geometry">
            <mxPoint x="371" y="590" as="sourcePoint" />
            <mxPoint x="386" y="632" as="targetPoint" />
          </mxGeometry>
        </mxCell>
        <mxCell id="pEEGsxXiU1uAI_5blDyY-112" value="" style="endArrow=classic;html=1;rounded=0;entryX=0.584;entryY=0.015;entryDx=0;entryDy=0;exitX=0.5;exitY=1;exitDx=0;exitDy=0;entryPerimeter=0;strokeColor=#BDBDBD;" edge="1" parent="1" source="pEEGsxXiU1uAI_5blDyY-106" target="pEEGsxXiU1uAI_5blDyY-110">
          <mxGeometry width="50" height="50" relative="1" as="geometry">
            <mxPoint x="388" y="822" as="sourcePoint" />
            <mxPoint x="379" y="860" as="targetPoint" />
          </mxGeometry>
        </mxCell>
        <mxCell id="pEEGsxXiU1uAI_5blDyY-113" value="" style="endArrow=classic;html=1;rounded=0;entryX=0.5;entryY=0;entryDx=0;entryDy=0;exitX=0.5;exitY=1;exitDx=0;exitDy=0;" edge="1" parent="1" source="pEEGsxXiU1uAI_5blDyY-110" target="pEEGsxXiU1uAI_5blDyY-98">
          <mxGeometry width="50" height="50" relative="1" as="geometry">
            <mxPoint x="398" y="832" as="sourcePoint" />
            <mxPoint x="389" y="870" as="targetPoint" />
          </mxGeometry>
        </mxCell>
        <mxCell id="pEEGsxXiU1uAI_5blDyY-114" value="" style="endArrow=classic;html=1;rounded=0;entryX=0.5;entryY=1;entryDx=0;entryDy=0;exitX=0.5;exitY=0;exitDx=0;exitDy=0;" edge="1" parent="1" source="pEEGsxXiU1uAI_5blDyY-119" target="pEEGsxXiU1uAI_5blDyY-103">
          <mxGeometry width="50" height="50" relative="1" as="geometry">
            <mxPoint x="510" y="850" as="sourcePoint" />
            <mxPoint x="399" y="880" as="targetPoint" />
          </mxGeometry>
        </mxCell>
        <mxCell id="pEEGsxXiU1uAI_5blDyY-116" value="alsa playback&lt;div&gt;&lt;span style=&quot;background-color: initial;&quot;&gt;&amp;nbsp;hw1.0 ch.2&lt;/span&gt;&lt;div&gt;&lt;div&gt;teensy&lt;/div&gt;&lt;/div&gt;&lt;/div&gt;" style="rounded=0;whiteSpace=wrap;html=1;" vertex="1" parent="1">
          <mxGeometry x="444" y="902" width="114" height="54" as="geometry" />
        </mxCell>
        <mxCell id="pEEGsxXiU1uAI_5blDyY-119" value="alsaloop" style="rounded=0;whiteSpace=wrap;html=1;" vertex="1" parent="1">
          <mxGeometry x="471" y="850" width="50" height="20" as="geometry" />
        </mxCell>
        <mxCell id="pEEGsxXiU1uAI_5blDyY-120" value="" style="endArrow=classic;html=1;rounded=0;entryX=0.5;entryY=1;entryDx=0;entryDy=0;exitX=0.5;exitY=0;exitDx=0;exitDy=0;" edge="1" parent="1" source="pEEGsxXiU1uAI_5blDyY-116" target="pEEGsxXiU1uAI_5blDyY-119">
          <mxGeometry width="50" height="50" relative="1" as="geometry">
            <mxPoint x="506" y="860" as="sourcePoint" />
            <mxPoint x="510" y="822" as="targetPoint" />
          </mxGeometry>
        </mxCell>
        <mxCell id="pEEGsxXiU1uAI_5blDyY-121" value="" style="endArrow=classic;html=1;rounded=0;entryX=0.5;entryY=1;entryDx=0;entryDy=0;exitX=0.5;exitY=0;exitDx=0;exitDy=0;" edge="1" parent="1" source="pEEGsxXiU1uAI_5blDyY-99" target="pEEGsxXiU1uAI_5blDyY-116">
          <mxGeometry width="50" height="50" relative="1" as="geometry">
            <mxPoint x="511" y="912" as="sourcePoint" />
            <mxPoint x="506" y="878" as="targetPoint" />
          </mxGeometry>
        </mxCell>
        <mxCell id="pEEGsxXiU1uAI_5blDyY-122" value="presenter" style="rounded=1;whiteSpace=wrap;html=1;" vertex="1" parent="1">
          <mxGeometry x="1401" y="933" width="80" height="30" as="geometry" />
        </mxCell>
        <mxCell id="pEEGsxXiU1uAI_5blDyY-123" value="HDMI&lt;br&gt;" style="endArrow=classic;html=1;rounded=0;entryX=1;entryY=0.5;entryDx=0;entryDy=0;exitX=0;exitY=0.5;exitDx=0;exitDy=0;" edge="1" parent="1" source="pEEGsxXiU1uAI_5blDyY-122" target="pEEGsxXiU1uAI_5blDyY-100">
          <mxGeometry width="50" height="50" relative="1" as="geometry">
            <mxPoint x="1191" y="1329" as="sourcePoint" />
            <mxPoint x="1321" y="1189" as="targetPoint" />
          </mxGeometry>
        </mxCell>
        <mxCell id="pEEGsxXiU1uAI_5blDyY-124" value="beamer" style="rounded=1;whiteSpace=wrap;html=1;" vertex="1" parent="1">
          <mxGeometry x="791" y="1234" width="80" height="30" as="geometry" />
        </mxCell>
        <mxCell id="pEEGsxXiU1uAI_5blDyY-125" value="HDMI&lt;br&gt;" style="endArrow=classic;html=1;rounded=0;entryX=0.5;entryY=0;entryDx=0;entryDy=0;exitX=0.5;exitY=1;exitDx=0;exitDy=0;" edge="1" parent="1" source="pEEGsxXiU1uAI_5blDyY-96" target="pEEGsxXiU1uAI_5blDyY-124">
          <mxGeometry width="50" height="50" relative="1" as="geometry">
            <mxPoint x="1321" y="1204" as="sourcePoint" />
            <mxPoint x="1391" y="1184" as="targetPoint" />
          </mxGeometry>
        </mxCell>
        <mxCell id="pEEGsxXiU1uAI_5blDyY-126" value="Room PA" style="rounded=1;whiteSpace=wrap;html=1;" vertex="1" parent="1">
          <mxGeometry x="48" y="1191" width="80" height="30" as="geometry" />
        </mxCell>
        <mxCell id="pEEGsxXiU1uAI_5blDyY-129" value="mixer&lt;div&gt;out 2&lt;/div&gt;" style="rounded=0;whiteSpace=wrap;html=1;" vertex="1" parent="1">
          <mxGeometry x="474" y="232" width="50" height="30" as="geometry" />
        </mxCell>
        <mxCell id="pEEGsxXiU1uAI_5blDyY-130" value="mixer&lt;div&gt;out 1&lt;/div&gt;" style="rounded=0;whiteSpace=wrap;html=1;strokeColor=#BDBDBD;" vertex="1" parent="1">
          <mxGeometry x="349" y="280" width="50" height="30" as="geometry" />
        </mxCell>
        <mxCell id="pEEGsxXiU1uAI_5blDyY-133" value="" style="endArrow=classic;html=1;rounded=0;entryX=0.5;entryY=1;entryDx=0;entryDy=0;exitX=0.5;exitY=0;exitDx=0;exitDy=0;" edge="1" parent="1" source="pEEGsxXiU1uAI_5blDyY-65" target="pEEGsxXiU1uAI_5blDyY-129">
          <mxGeometry width="50" height="50" relative="1" as="geometry">
            <mxPoint x="384" y="432" as="sourcePoint" />
            <mxPoint x="371" y="474" as="targetPoint" />
          </mxGeometry>
        </mxCell>
        <mxCell id="pEEGsxXiU1uAI_5blDyY-134" value="" style="endArrow=classic;html=1;rounded=0;entryX=0.5;entryY=1;entryDx=0;entryDy=0;exitX=0.5;exitY=0;exitDx=0;exitDy=0;" edge="1" parent="1" source="pEEGsxXiU1uAI_5blDyY-60" target="pEEGsxXiU1uAI_5blDyY-65">
          <mxGeometry width="50" height="50" relative="1" as="geometry">
            <mxPoint x="511" y="360" as="sourcePoint" />
            <mxPoint x="511" y="320" as="targetPoint" />
          </mxGeometry>
        </mxCell>
        <mxCell id="pEEGsxXiU1uAI_5blDyY-135" value="" style="endArrow=classic;html=1;rounded=0;entryX=0.5;entryY=1;entryDx=0;entryDy=0;exitX=0.5;exitY=0;exitDx=0;exitDy=0;strokeColor=#BDBDBD;" edge="1" parent="1" source="pEEGsxXiU1uAI_5blDyY-61" target="pEEGsxXiU1uAI_5blDyY-130">
          <mxGeometry width="50" height="50" relative="1" as="geometry">
            <mxPoint x="441" y="340" as="sourcePoint" />
            <mxPoint x="371" y="474" as="targetPoint" />
          </mxGeometry>
        </mxCell>
        <mxCell id="pEEGsxXiU1uAI_5blDyY-136" value="mixer&lt;div&gt;out 2&lt;/div&gt;" style="rounded=0;whiteSpace=wrap;html=1;" vertex="1" parent="1">
          <mxGeometry x="267" y="1262" width="50" height="30" as="geometry" />
        </mxCell>
        <mxCell id="pEEGsxXiU1uAI_5blDyY-137" value="mixer&lt;div&gt;out 1&lt;/div&gt;" style="rounded=0;whiteSpace=wrap;html=1;" vertex="1" parent="1">
          <mxGeometry x="253" y="1191" width="50" height="30" as="geometry" />
        </mxCell>
        <mxCell id="pEEGsxXiU1uAI_5blDyY-139" value="mixer&lt;div&gt;inputs&lt;/div&gt;" style="rounded=0;whiteSpace=wrap;html=1;" vertex="1" parent="1">
          <mxGeometry x="453" y="1312" width="50" height="30" as="geometry" />
        </mxCell>
        <mxCell id="pEEGsxXiU1uAI_5blDyY-140" value="" style="endArrow=classic;html=1;rounded=0;entryX=0.5;entryY=1;entryDx=0;entryDy=0;" edge="1" parent="1" source="pEEGsxXiU1uAI_5blDyY-139" target="pEEGsxXiU1uAI_5blDyY-98">
          <mxGeometry width="50" height="50" relative="1" as="geometry">
            <mxPoint x="487" y="1480" as="sourcePoint" />
            <mxPoint x="488" y="1352" as="targetPoint" />
          </mxGeometry>
        </mxCell>
        <mxCell id="pEEGsxXiU1uAI_5blDyY-142" value="" style="endArrow=classic;html=1;rounded=0;entryX=0.5;entryY=1;entryDx=0;entryDy=0;exitX=0.75;exitY=0;exitDx=0;exitDy=0;" edge="1" parent="1" source="pEEGsxXiU1uAI_5blDyY-139" target="pEEGsxXiU1uAI_5blDyY-99">
          <mxGeometry width="50" height="50" relative="1" as="geometry">
            <mxPoint x="472" y="1322" as="sourcePoint" />
            <mxPoint x="380" y="1234" as="targetPoint" />
          </mxGeometry>
        </mxCell>
        <mxCell id="pEEGsxXiU1uAI_5blDyY-144" value="" style="endArrow=classic;html=1;rounded=0;exitX=0.25;exitY=1;exitDx=0;exitDy=0;entryX=1;entryY=0.75;entryDx=0;entryDy=0;" edge="1" parent="1" source="pEEGsxXiU1uAI_5blDyY-99" target="pEEGsxXiU1uAI_5blDyY-136">
          <mxGeometry width="50" height="50" relative="1" as="geometry">
            <mxPoint x="375" y="1116" as="sourcePoint" />
            <mxPoint x="347" y="1342" as="targetPoint" />
          </mxGeometry>
        </mxCell>
        <mxCell id="pEEGsxXiU1uAI_5blDyY-145" value="" style="endArrow=classic;html=1;rounded=0;entryX=1;entryY=0.5;entryDx=0;entryDy=0;exitX=0;exitY=0.75;exitDx=0;exitDy=0;" edge="1" parent="1" source="pEEGsxXiU1uAI_5blDyY-98" target="pEEGsxXiU1uAI_5blDyY-137">
          <mxGeometry width="50" height="50" relative="1" as="geometry">
            <mxPoint x="385" y="1126" as="sourcePoint" />
            <mxPoint x="390" y="1172" as="targetPoint" />
          </mxGeometry>
        </mxCell>
        <mxCell id="pEEGsxXiU1uAI_5blDyY-146" value="" style="endArrow=classic;html=1;rounded=0;entryX=1;entryY=0.5;entryDx=0;entryDy=0;exitX=0;exitY=0.5;exitDx=0;exitDy=0;" edge="1" parent="1" source="pEEGsxXiU1uAI_5blDyY-137" target="pEEGsxXiU1uAI_5blDyY-126">
          <mxGeometry width="50" height="50" relative="1" as="geometry">
            <mxPoint x="487" y="1480" as="sourcePoint" />
            <mxPoint x="488" y="1352" as="targetPoint" />
          </mxGeometry>
        </mxCell>
        <mxCell id="pEEGsxXiU1uAI_5blDyY-147" value="analog audio" style="edgeLabel;html=1;align=center;verticalAlign=middle;resizable=0;points=[];" connectable="0" vertex="1" parent="pEEGsxXiU1uAI_5blDyY-146">
          <mxGeometry x="-0.4052" y="-3" relative="1" as="geometry">
            <mxPoint as="offset" />
          </mxGeometry>
        </mxCell>
        <mxCell id="pEEGsxXiU1uAI_5blDyY-149" value="&lt;font style=&quot;font-size: 18px;&quot;&gt;Camera box&lt;/font&gt;" style="text;html=1;strokeColor=none;fillColor=none;align=center;verticalAlign=middle;whiteSpace=wrap;rounded=0;" vertex="1" parent="1">
          <mxGeometry x="1153" y="376" width="200" height="30" as="geometry" />
        </mxCell>
        <mxCell id="pEEGsxXiU1uAI_5blDyY-150" value="&lt;font style=&quot;font-size: 18px;&quot;&gt;Slides box&lt;/font&gt;" style="text;html=1;strokeColor=none;fillColor=none;align=center;verticalAlign=middle;whiteSpace=wrap;rounded=0;" vertex="1" parent="1">
          <mxGeometry x="1111" y="1234" width="200" height="30" as="geometry" />
        </mxCell>
        <mxCell id="pEEGsxXiU1uAI_5blDyY-152" value="PCM16/48khz&lt;div&gt;1ch&lt;/div&gt;" style="endArrow=classic;html=1;rounded=0;exitX=0;exitY=0.5;exitDx=0;exitDy=0;entryX=1;entryY=0.5;entryDx=0;entryDy=0;" edge="1" parent="1" source="pEEGsxXiU1uAI_5blDyY-90" target="pEEGsxXiU1uAI_5blDyY-154">
          <mxGeometry x="-0.0003" width="50" height="50" relative="1" as="geometry">
            <mxPoint x="1131" y="983" as="sourcePoint" />
            <mxPoint x="751" y="1010" as="targetPoint" />
            <mxPoint as="offset" />
          </mxGeometry>
        </mxCell>
        <mxCell id="pEEGsxXiU1uAI_5blDyY-154" value="alsa record&lt;div&gt;&lt;span style=&quot;background-color: initial;&quot;&gt;&amp;nbsp;hw1.0 ch.2&lt;/span&gt;&lt;div&gt;&lt;div&gt;teensy&lt;/div&gt;&lt;/div&gt;&lt;/div&gt;" style="rounded=0;whiteSpace=wrap;html=1;" vertex="1" parent="1">
          <mxGeometry x="617" y="954" width="114" height="54" as="geometry" />
        </mxCell>
        <mxCell id="pEEGsxXiU1uAI_5blDyY-155" value="" style="endArrow=classic;html=1;rounded=0;exitX=0;exitY=0.5;exitDx=0;exitDy=0;entryX=0.75;entryY=0;entryDx=0;entryDy=0;" edge="1" parent="1" source="pEEGsxXiU1uAI_5blDyY-154" target="pEEGsxXiU1uAI_5blDyY-98">
          <mxGeometry x="-0.0007" width="50" height="50" relative="1" as="geometry">
            <mxPoint x="881" y="944" as="sourcePoint" />
            <mxPoint x="741" y="1001" as="targetPoint" />
            <mxPoint as="offset" />
          </mxGeometry>
        </mxCell>
        <mxCell id="pEEGsxXiU1uAI_5blDyY-156" value="" style="endArrow=classic;html=1;rounded=0;entryX=0.75;entryY=0;entryDx=0;entryDy=0;" edge="1" parent="1" source="pEEGsxXiU1uAI_5blDyY-154" target="pEEGsxXiU1uAI_5blDyY-99">
          <mxGeometry x="-0.0003" width="50" height="50" relative="1" as="geometry">
            <mxPoint x="627" y="1001" as="sourcePoint" />
            <mxPoint x="395" y="1162" as="targetPoint" />
            <mxPoint as="offset" />
          </mxGeometry>
        </mxCell>
        <mxCell id="CAnVh4IuNJVBeKZ77iD8-1" value="video-recorder" style="rounded=0;whiteSpace=wrap;html=1;" vertex="1" parent="1">
          <mxGeometry x="991" y="1202" width="92.5" height="18" as="geometry" />
        </mxCell>
        <mxCell id="CAnVh4IuNJVBeKZ77iD8-3" value="h.264&lt;div&gt;mpeg-ts&lt;/div&gt;" style="endArrow=classic;html=1;rounded=0;exitX=0.5;exitY=1;exitDx=0;exitDy=0;" edge="1" parent="1" source="pEEGsxXiU1uAI_5blDyY-89" target="CAnVh4IuNJVBeKZ77iD8-1">
          <mxGeometry width="50" height="50" relative="1" as="geometry">
            <mxPoint x="975" y="974" as="sourcePoint" />
            <mxPoint x="961" y="1105" as="targetPoint" />
          </mxGeometry>
        </mxCell>
        <mxCell id="CAnVh4IuNJVBeKZ77iD8-4" value="video-recorder" style="rounded=0;whiteSpace=wrap;html=1;" vertex="1" parent="1">
          <mxGeometry x="1033" y="532" width="96.25" height="23" as="geometry" />
        </mxCell>
        <mxCell id="CAnVh4IuNJVBeKZ77iD8-5" value="h.264&lt;div&gt;mpeg-ts&lt;/div&gt;" style="endArrow=classic;html=1;rounded=0;exitX=0.5;exitY=1;exitDx=0;exitDy=0;" edge="1" parent="1" source="pEEGsxXiU1uAI_5blDyY-16" target="CAnVh4IuNJVBeKZ77iD8-4">
          <mxGeometry width="50" height="50" relative="1" as="geometry">
            <mxPoint x="996.75" y="445" as="sourcePoint" />
            <mxPoint x="1006.75" y="435" as="targetPoint" />
          </mxGeometry>
        </mxCell>
        <mxCell id="X3JTs7NuvpOgUQTZGqJl-1" value="streamdump&lt;br&gt;fiiles" style="ellipse;whiteSpace=wrap;html=1;" vertex="1" parent="1">
          <mxGeometry x="1038.63" y="612" width="85" height="40" as="geometry" />
        </mxCell>
        <mxCell id="wj2shkmpH-DDX_OvTFKc-1" value="files" style="endArrow=classic;html=1;rounded=0;exitX=0.5;exitY=1;exitDx=0;exitDy=0;entryX=0.5;entryY=0;entryDx=0;entryDy=0;" edge="1" parent="1" source="CAnVh4IuNJVBeKZ77iD8-4" target="X3JTs7NuvpOgUQTZGqJl-1">
          <mxGeometry width="50" height="50" relative="1" as="geometry">
            <mxPoint x="492" y="677" as="sourcePoint" />
            <mxPoint x="486" y="753" as="targetPoint" />
          </mxGeometry>
        </mxCell>
        <mxCell id="wj2shkmpH-DDX_OvTFKc-3" value="streamdump&lt;br&gt;fiiles" style="ellipse;whiteSpace=wrap;html=1;" vertex="1" parent="1">
          <mxGeometry x="1001" y="1302" width="85" height="40" as="geometry" />
        </mxCell>
        <mxCell id="wj2shkmpH-DDX_OvTFKc-4" value="files" style="endArrow=classic;html=1;rounded=0;entryX=0.5;entryY=0;entryDx=0;entryDy=0;" edge="1" parent="1" source="CAnVh4IuNJVBeKZ77iD8-1" target="wj2shkmpH-DDX_OvTFKc-3">
          <mxGeometry width="50" height="50" relative="1" as="geometry">
            <mxPoint x="859" y="560" as="sourcePoint" />
            <mxPoint x="405" y="758" as="targetPoint" />
          </mxGeometry>
        </mxCell>
        <mxCell id="wj2shkmpH-DDX_OvTFKc-5" value="alsa playback&lt;div&gt;&lt;span style=&quot;background-color: initial;&quot;&gt;&amp;nbsp;hw1.0 ch.1&lt;/span&gt;&lt;div&gt;&lt;div&gt;teensy&lt;/div&gt;&lt;/div&gt;&lt;/div&gt;" style="rounded=0;whiteSpace=wrap;html=1;" vertex="1" parent="1">
          <mxGeometry x="630" y="1070" width="114" height="54" as="geometry" />
        </mxCell>
        <mxCell id="wj2shkmpH-DDX_OvTFKc-6" value="" style="endArrow=classic;html=1;rounded=0;exitX=1;exitY=0.5;exitDx=0;exitDy=0;entryX=0;entryY=0.5;entryDx=0;entryDy=0;" edge="1" parent="1" source="pEEGsxXiU1uAI_5blDyY-99" target="wj2shkmpH-DDX_OvTFKc-5">
          <mxGeometry x="-0.0003" width="50" height="50" relative="1" as="geometry">
            <mxPoint x="658" y="1018" as="sourcePoint" />
            <mxPoint x="710" y="1390" as="targetPoint" />
            <mxPoint as="offset" />
          </mxGeometry>
        </mxCell>
        <mxCell id="wj2shkmpH-DDX_OvTFKc-7" value="PCM16/48khz&lt;div&gt;1ch&lt;/div&gt;" style="endArrow=classic;html=1;rounded=0;exitX=0.821;exitY=-0.005;exitDx=0;exitDy=0;entryX=0;entryY=0.75;entryDx=0;entryDy=0;exitPerimeter=0;" edge="1" parent="1" source="wj2shkmpH-DDX_OvTFKc-5" target="pEEGsxXiU1uAI_5blDyY-90">
          <mxGeometry x="-0.0003" width="50" height="50" relative="1" as="geometry">
            <mxPoint x="537" y="1196" as="sourcePoint" />
            <mxPoint x="640" y="1107" as="targetPoint" />
            <mxPoint as="offset" />
          </mxGeometry>
        </mxCell>
        <mxCell id="Yo1l-5pb6t7laVlvm3Tx-5" value="alsa playback&lt;div&gt;&lt;span style=&quot;background-color: initial;&quot;&gt;&amp;nbsp;hw1.0 ch.1&lt;/span&gt;&lt;div&gt;&lt;div&gt;teensy&lt;/div&gt;&lt;/div&gt;&lt;/div&gt;" style="rounded=0;whiteSpace=wrap;html=1;" vertex="1" parent="1">
          <mxGeometry x="602" y="330" width="114" height="54" as="geometry" />
        </mxCell>
        <mxCell id="Yo1l-5pb6t7laVlvm3Tx-6" value="" style="endArrow=classic;html=1;rounded=0;entryX=0;entryY=0.5;entryDx=0;entryDy=0;exitX=0.983;exitY=0.361;exitDx=0;exitDy=0;exitPerimeter=0;" edge="1" parent="1" source="pEEGsxXiU1uAI_5blDyY-65" target="Yo1l-5pb6t7laVlvm3Tx-5">
          <mxGeometry x="-0.0003" width="50" height="50" relative="1" as="geometry">
            <mxPoint x="537" y="670" as="sourcePoint" />
            <mxPoint x="720" y="1400" as="targetPoint" />
            <mxPoint as="offset" />
          </mxGeometry>
        </mxCell>
        <mxCell id="Yo1l-5pb6t7laVlvm3Tx-7" value="PCM16/48khz&lt;div&gt;1ch&lt;/div&gt;" style="endArrow=classic;html=1;rounded=0;exitX=0.821;exitY=-0.005;exitDx=0;exitDy=0;exitPerimeter=0;entryX=0;entryY=1;entryDx=0;entryDy=0;" edge="1" parent="1" source="Yo1l-5pb6t7laVlvm3Tx-5" target="pEEGsxXiU1uAI_5blDyY-31">
          <mxGeometry x="-0.0003" width="50" height="50" relative="1" as="geometry">
            <mxPoint x="547" y="1206" as="sourcePoint" />
            <mxPoint x="750" y="520" as="targetPoint" />
            <mxPoint as="offset" />
          </mxGeometry>
        </mxCell>
        <mxCell id="Yo1l-5pb6t7laVlvm3Tx-8" value="PCM16/48khz&lt;div&gt;1ch&lt;/div&gt;" style="endArrow=classic;html=1;rounded=0;exitX=0;exitY=0.5;exitDx=0;exitDy=0;entryX=1;entryY=0.5;entryDx=0;entryDy=0;" edge="1" parent="1" source="pEEGsxXiU1uAI_5blDyY-31" target="Yo1l-5pb6t7laVlvm3Tx-9">
          <mxGeometry x="-0.0003" width="50" height="50" relative="1" as="geometry">
            <mxPoint x="856" y="120" as="sourcePoint" />
            <mxPoint x="736" y="196" as="targetPoint" />
            <mxPoint as="offset" />
          </mxGeometry>
        </mxCell>
        <mxCell id="Yo1l-5pb6t7laVlvm3Tx-9" value="alsa record&lt;div&gt;&lt;span style=&quot;background-color: initial;&quot;&gt;&amp;nbsp;hw1.0 ch.2&lt;/span&gt;&lt;div&gt;&lt;div&gt;teensy&lt;/div&gt;&lt;/div&gt;&lt;/div&gt;" style="rounded=0;whiteSpace=wrap;html=1;" vertex="1" parent="1">
          <mxGeometry x="601" y="219" width="114" height="54" as="geometry" />
        </mxCell>
        <mxCell id="Yo1l-5pb6t7laVlvm3Tx-10" value="&lt;b&gt;&lt;i&gt;zero level!&lt;/i&gt;&lt;/b&gt;" style="endArrow=classic;html=1;rounded=0;exitX=0;exitY=0.5;exitDx=0;exitDy=0;entryX=1;entryY=0.25;entryDx=0;entryDy=0;" edge="1" parent="1" source="Yo1l-5pb6t7laVlvm3Tx-9" target="pEEGsxXiU1uAI_5blDyY-61">
          <mxGeometry x="-0.0011" width="50" height="50" relative="1" as="geometry">
            <mxPoint x="866" y="130" as="sourcePoint" />
            <mxPoint x="370" y="338" as="targetPoint" />
            <mxPoint as="offset" />
          </mxGeometry>
        </mxCell>
        <mxCell id="Yo1l-5pb6t7laVlvm3Tx-11" value="&lt;b&gt;&lt;i&gt;zero level!&lt;/i&gt;&lt;/b&gt;" style="endArrow=classic;html=1;rounded=0;" edge="1" parent="1" source="Yo1l-5pb6t7laVlvm3Tx-9">
          <mxGeometry x="-0.0003" width="50" height="50" relative="1" as="geometry">
            <mxPoint x="612" y="187" as="sourcePoint" />
            <mxPoint x="510" y="350" as="targetPoint" />
            <mxPoint as="offset" />
          </mxGeometry>
        </mxCell>
      </root>
    </mxGraphModel>
  </diagram>
  <diagram id="HPlRkYlz7mBhVPx6v0OG" name="streams">
    <mxGraphModel grid="1" page="1" gridSize="10" guides="1" tooltips="1" connect="1" arrows="1" fold="1" pageScale="1" pageWidth="1654" pageHeight="1169" math="0" shadow="0">
      <root>
        <mxCell id="0" />
        <mxCell id="1" parent="0" />
        <mxCell id="SD2qtICihAMcHdVdknsy-8" value="" style="rounded=0;whiteSpace=wrap;html=1;" vertex="1" parent="1">
          <mxGeometry x="34.5" y="190" width="298.5" height="330" as="geometry" />
        </mxCell>
        <mxCell id="SD2qtICihAMcHdVdknsy-7" value="" style="rounded=0;whiteSpace=wrap;html=1;" vertex="1" parent="1">
          <mxGeometry x="34.5" y="545" width="298.5" height="354" as="geometry" />
        </mxCell>
        <mxCell id="SD2qtICihAMcHdVdknsy-6" value="" style="rounded=0;whiteSpace=wrap;html=1;" vertex="1" parent="1">
          <mxGeometry x="1310" y="153.5" width="300" height="706.5" as="geometry" />
        </mxCell>
        <mxCell id="SD2qtICihAMcHdVdknsy-5" value="" style="rounded=0;whiteSpace=wrap;html=1;" vertex="1" parent="1">
          <mxGeometry x="470" y="172" width="660" height="550" as="geometry" />
        </mxCell>
        <mxCell id="EWq0sbPmy4PHpLzVdcWs-1" value="A:R:microphone_P&lt;div&gt;primary&lt;/div&gt;" style="rounded=0;whiteSpace=wrap;html=1;" vertex="1" parent="1">
          <mxGeometry x="341" y="290" width="121" height="38" as="geometry" />
        </mxCell>
        <mxCell id="EWq0sbPmy4PHpLzVdcWs-2" value="V:camera video" style="rounded=0;whiteSpace=wrap;html=1;" vertex="1" parent="1">
          <mxGeometry x="341" y="252" width="121" height="38" as="geometry" />
        </mxCell>
        <mxCell id="EWq0sbPmy4PHpLzVdcWs-3" value="A:L:audience" style="rounded=0;whiteSpace=wrap;html=1;" vertex="1" parent="1">
          <mxGeometry x="341" y="328" width="121" height="38" as="geometry" />
        </mxCell>
        <mxCell id="EWq0sbPmy4PHpLzVdcWs-5" value="V:slides video" style="rounded=0;whiteSpace=wrap;html=1;" vertex="1" parent="1">
          <mxGeometry x="341" y="600" width="121" height="38" as="geometry" />
        </mxCell>
        <mxCell id="EWq0sbPmy4PHpLzVdcWs-6" value="A:L:laptop input" style="rounded=0;whiteSpace=wrap;html=1;" vertex="1" parent="1">
          <mxGeometry x="341" y="676" width="121" height="38" as="geometry" />
        </mxCell>
        <mxCell id="EWq0sbPmy4PHpLzVdcWs-8" value="source-cam" style="rounded=0;whiteSpace=wrap;html=1;" vertex="1" parent="1">
          <mxGeometry x="482" y="317" width="75" height="38" as="geometry" />
        </mxCell>
        <mxCell id="EWq0sbPmy4PHpLzVdcWs-9" value="A:R:microphone_P" style="rounded=0;whiteSpace=wrap;html=1;" vertex="1" parent="1">
          <mxGeometry x="575" y="338" width="121" height="38" as="geometry" />
        </mxCell>
        <mxCell id="EWq0sbPmy4PHpLzVdcWs-10" value="V:camera video" style="rounded=0;whiteSpace=wrap;html=1;" vertex="1" parent="1">
          <mxGeometry x="575" y="300" width="121" height="38" as="geometry" />
        </mxCell>
        <mxCell id="EWq0sbPmy4PHpLzVdcWs-11" value="A:L:audience" style="rounded=0;whiteSpace=wrap;html=1;" vertex="1" parent="1">
          <mxGeometry x="575" y="376" width="121" height="38" as="geometry" />
        </mxCell>
        <mxCell id="EWq0sbPmy4PHpLzVdcWs-12" value="A:C:emtpy" style="rounded=0;whiteSpace=wrap;html=1;" vertex="1" parent="1">
          <mxGeometry x="575" y="414" width="121" height="38" as="geometry" />
        </mxCell>
        <mxCell id="EWq0sbPmy4PHpLzVdcWs-14" value="source-cam" style="rounded=0;whiteSpace=wrap;html=1;" vertex="1" parent="1">
          <mxGeometry x="482" y="589" width="85" height="38" as="geometry" />
        </mxCell>
        <mxCell id="EWq0sbPmy4PHpLzVdcWs-15" value="A:R:empty" style="rounded=0;whiteSpace=wrap;html=1;" vertex="1" parent="1">
          <mxGeometry x="575" y="559" width="121" height="38" as="geometry" />
        </mxCell>
        <mxCell id="EWq0sbPmy4PHpLzVdcWs-16" value="V:camera video" style="rounded=0;whiteSpace=wrap;html=1;" vertex="1" parent="1">
          <mxGeometry x="575" y="521" width="121" height="38" as="geometry" />
        </mxCell>
        <mxCell id="EWq0sbPmy4PHpLzVdcWs-17" value="A:L:empty" style="rounded=0;whiteSpace=wrap;html=1;" vertex="1" parent="1">
          <mxGeometry x="575" y="597" width="121" height="38" as="geometry" />
        </mxCell>
        <mxCell id="EWq0sbPmy4PHpLzVdcWs-18" value="A:C:microphone_B" style="rounded=0;whiteSpace=wrap;html=1;" vertex="1" parent="1">
          <mxGeometry x="575" y="635" width="121" height="38" as="geometry" />
        </mxCell>
        <mxCell id="EWq0sbPmy4PHpLzVdcWs-19" value="voctomix" style="rounded=0;whiteSpace=wrap;html=1;" vertex="1" parent="1">
          <mxGeometry x="742" y="460" width="73" height="38" as="geometry" />
        </mxCell>
        <mxCell id="EWq0sbPmy4PHpLzVdcWs-20" value="sink-output" style="rounded=0;whiteSpace=wrap;html=1;" vertex="1" parent="1">
          <mxGeometry x="1006" y="457" width="82" height="39" as="geometry" />
        </mxCell>
        <mxCell id="EWq0sbPmy4PHpLzVdcWs-21" value="A:R:microphone_P" style="rounded=0;whiteSpace=wrap;html=1;" vertex="1" parent="1">
          <mxGeometry x="852" y="450" width="121" height="38" as="geometry" />
        </mxCell>
        <mxCell id="EWq0sbPmy4PHpLzVdcWs-22" value="V:scene video" style="rounded=0;whiteSpace=wrap;html=1;" vertex="1" parent="1">
          <mxGeometry x="852" y="412" width="121" height="38" as="geometry" />
        </mxCell>
        <mxCell id="EWq0sbPmy4PHpLzVdcWs-23" value="A:L:audience" style="rounded=0;whiteSpace=wrap;html=1;" vertex="1" parent="1">
          <mxGeometry x="852" y="488" width="121" height="38" as="geometry" />
        </mxCell>
        <mxCell id="EWq0sbPmy4PHpLzVdcWs-24" value="A:C:microphone_B" style="rounded=0;whiteSpace=wrap;html=1;" vertex="1" parent="1">
          <mxGeometry x="852" y="526" width="121" height="38" as="geometry" />
        </mxCell>
        <mxCell id="EWq0sbPmy4PHpLzVdcWs-25" value="A:1:microphone_P" style="rounded=0;whiteSpace=wrap;html=1;" vertex="1" parent="1">
          <mxGeometry x="1147" y="438" width="121" height="38" as="geometry" />
        </mxCell>
        <mxCell id="EWq0sbPmy4PHpLzVdcWs-26" value="V:scene video 1080p" style="rounded=0;whiteSpace=wrap;html=1;" vertex="1" parent="1">
          <mxGeometry x="1147" y="324" width="121" height="38" as="geometry" />
        </mxCell>
        <mxCell id="EWq0sbPmy4PHpLzVdcWs-27" value="A:2:audience" style="rounded=0;whiteSpace=wrap;html=1;" vertex="1" parent="1">
          <mxGeometry x="1147" y="476" width="121" height="38" as="geometry" />
        </mxCell>
        <mxCell id="EWq0sbPmy4PHpLzVdcWs-28" value="A:3:microphone_B" style="rounded=0;whiteSpace=wrap;html=1;" vertex="1" parent="1">
          <mxGeometry x="1147" y="514" width="121" height="38" as="geometry" />
        </mxCell>
        <mxCell id="EWq0sbPmy4PHpLzVdcWs-29" value="V:scene video 720p" style="rounded=0;whiteSpace=wrap;html=1;" vertex="1" parent="1">
          <mxGeometry x="1147" y="362" width="121" height="38" as="geometry" />
        </mxCell>
        <mxCell id="EWq0sbPmy4PHpLzVdcWs-30" value="V:scene video 480p" style="rounded=0;whiteSpace=wrap;html=1;" vertex="1" parent="1">
          <mxGeometry x="1147" y="400" width="121" height="38" as="geometry" />
        </mxCell>
        <mxCell id="EWq0sbPmy4PHpLzVdcWs-31" value="fetcher" style="rounded=0;whiteSpace=wrap;html=1;" vertex="1" parent="1">
          <mxGeometry x="1320" y="419" width="72" height="39" as="geometry" />
        </mxCell>
        <mxCell id="EWq0sbPmy4PHpLzVdcWs-32" value="A:1:microphone_P" style="rounded=0;whiteSpace=wrap;html=1;" vertex="1" parent="1">
          <mxGeometry x="1446" y="310" width="121" height="38" as="geometry" />
        </mxCell>
        <mxCell id="EWq0sbPmy4PHpLzVdcWs-33" value="V:scene video 1080p" style="rounded=0;whiteSpace=wrap;html=1;" vertex="1" parent="1">
          <mxGeometry x="1446" y="272" width="121" height="38" as="geometry" />
        </mxCell>
        <mxCell id="EWq0sbPmy4PHpLzVdcWs-34" value="A:2:audience" style="rounded=0;whiteSpace=wrap;html=1;" vertex="1" parent="1">
          <mxGeometry x="1446" y="348" width="121" height="38" as="geometry" />
        </mxCell>
        <mxCell id="EWq0sbPmy4PHpLzVdcWs-35" value="A:3:microphone_B" style="rounded=0;whiteSpace=wrap;html=1;" vertex="1" parent="1">
          <mxGeometry x="1446" y="386" width="121" height="38" as="geometry" />
        </mxCell>
        <mxCell id="EWq0sbPmy4PHpLzVdcWs-38" value="A:1:microphone_P" style="rounded=0;whiteSpace=wrap;html=1;" vertex="1" parent="1">
          <mxGeometry x="1446" y="656" width="121" height="38" as="geometry" />
        </mxCell>
        <mxCell id="EWq0sbPmy4PHpLzVdcWs-39" value="V:scene video 720p" style="rounded=0;whiteSpace=wrap;html=1;" vertex="1" parent="1">
          <mxGeometry x="1446" y="618" width="121" height="38" as="geometry" />
        </mxCell>
        <mxCell id="EWq0sbPmy4PHpLzVdcWs-42" value="A:1:microphone_P" style="rounded=0;whiteSpace=wrap;html=1;" vertex="1" parent="1">
          <mxGeometry x="1446" y="799" width="121" height="38" as="geometry" />
        </mxCell>
        <mxCell id="EWq0sbPmy4PHpLzVdcWs-43" value="V:scene video 480p" style="rounded=0;whiteSpace=wrap;html=1;" vertex="1" parent="1">
          <mxGeometry x="1446" y="761" width="121" height="38" as="geometry" />
        </mxCell>
        <mxCell id="EWq0sbPmy4PHpLzVdcWs-46" value="A:1:microphone_P" style="rounded=0;whiteSpace=wrap;html=1;" vertex="1" parent="1">
          <mxGeometry x="1446" y="522" width="121" height="38" as="geometry" />
        </mxCell>
        <mxCell id="EWq0sbPmy4PHpLzVdcWs-47" value="V:scene video 1080p" style="rounded=0;whiteSpace=wrap;html=1;" vertex="1" parent="1">
          <mxGeometry x="1446" y="484" width="121" height="38" as="geometry" />
        </mxCell>
        <mxCell id="EWq0sbPmy4PHpLzVdcWs-48" value="HLS" style="shape=trapezoid;perimeter=trapezoidPerimeter;whiteSpace=wrap;html=1;fixedSize=1;" vertex="1" parent="1">
          <mxGeometry x="1446" y="454" width="120" height="30" as="geometry" />
        </mxCell>
        <mxCell id="EWq0sbPmy4PHpLzVdcWs-49" value="HLS" style="shape=trapezoid;perimeter=trapezoidPerimeter;whiteSpace=wrap;html=1;fixedSize=1;" vertex="1" parent="1">
          <mxGeometry x="1447" y="588" width="120" height="30" as="geometry" />
        </mxCell>
        <mxCell id="EWq0sbPmy4PHpLzVdcWs-50" value="HLS" style="shape=trapezoid;perimeter=trapezoidPerimeter;whiteSpace=wrap;html=1;fixedSize=1;" vertex="1" parent="1">
          <mxGeometry x="1447" y="731" width="120" height="30" as="geometry" />
        </mxCell>
        <mxCell id="EWq0sbPmy4PHpLzVdcWs-51" value="mpeg-ts files&lt;div&gt;dumps&lt;/div&gt;" style="shape=trapezoid;perimeter=trapezoidPerimeter;whiteSpace=wrap;html=1;fixedSize=1;" vertex="1" parent="1">
          <mxGeometry x="1446.5" y="242" width="120" height="30" as="geometry" />
        </mxCell>
        <mxCell id="EWq0sbPmy4PHpLzVdcWs-52" value="mpeg-ts/tcp" style="shape=trapezoid;perimeter=trapezoidPerimeter;whiteSpace=wrap;html=1;fixedSize=1;" vertex="1" parent="1">
          <mxGeometry x="1148" y="294" width="120" height="30" as="geometry" />
        </mxCell>
        <mxCell id="EWq0sbPmy4PHpLzVdcWs-53" value="mkv/raw/tcp" style="shape=trapezoid;perimeter=trapezoidPerimeter;whiteSpace=wrap;html=1;fixedSize=1;" vertex="1" parent="1">
          <mxGeometry x="853" y="382" width="120" height="30" as="geometry" />
        </mxCell>
        <mxCell id="EWq0sbPmy4PHpLzVdcWs-54" value="mkv/raw/tcp" style="shape=trapezoid;perimeter=trapezoidPerimeter;whiteSpace=wrap;html=1;fixedSize=1;" vertex="1" parent="1">
          <mxGeometry x="576" y="270" width="120" height="30" as="geometry" />
        </mxCell>
        <mxCell id="EWq0sbPmy4PHpLzVdcWs-55" value="mkv/raw/tcp" style="shape=trapezoid;perimeter=trapezoidPerimeter;whiteSpace=wrap;html=1;fixedSize=1;" vertex="1" parent="1">
          <mxGeometry x="576" y="491" width="120" height="30" as="geometry" />
        </mxCell>
        <mxCell id="EWq0sbPmy4PHpLzVdcWs-56" value="mpeg-ts/tcp" style="shape=trapezoid;perimeter=trapezoidPerimeter;whiteSpace=wrap;html=1;fixedSize=1;" vertex="1" parent="1">
          <mxGeometry x="341.5" y="222" width="120" height="30" as="geometry" />
        </mxCell>
        <mxCell id="EWq0sbPmy4PHpLzVdcWs-57" value="mpeg-ts/tcp" style="shape=trapezoid;perimeter=trapezoidPerimeter;whiteSpace=wrap;html=1;fixedSize=1;" vertex="1" parent="1">
          <mxGeometry x="341" y="570" width="120" height="30" as="geometry" />
        </mxCell>
        <mxCell id="EWq0sbPmy4PHpLzVdcWs-58" value="V:camera video" style="rounded=0;whiteSpace=wrap;html=1;" vertex="1" parent="1">
          <mxGeometry x="63" y="242" width="121" height="38" as="geometry" />
        </mxCell>
        <mxCell id="EWq0sbPmy4PHpLzVdcWs-59" value="video-receiver" style="rounded=0;whiteSpace=wrap;html=1;" vertex="1" parent="1">
          <mxGeometry x="202" y="290" width="121" height="38" as="geometry" />
        </mxCell>
        <mxCell id="EWq0sbPmy4PHpLzVdcWs-60" value="mjpeg/uvc" style="shape=trapezoid;perimeter=trapezoidPerimeter;whiteSpace=wrap;html=1;fixedSize=1;" vertex="1" parent="1">
          <mxGeometry x="63" y="212" width="120" height="30" as="geometry" />
        </mxCell>
        <mxCell id="EWq0sbPmy4PHpLzVdcWs-63" value="V:slides video" style="rounded=0;whiteSpace=wrap;html=1;" vertex="1" parent="1">
          <mxGeometry x="64" y="589" width="121" height="38" as="geometry" />
        </mxCell>
        <mxCell id="EWq0sbPmy4PHpLzVdcWs-64" value="mjpeg/uvc" style="shape=trapezoid;perimeter=trapezoidPerimeter;whiteSpace=wrap;html=1;fixedSize=1;" vertex="1" parent="1">
          <mxGeometry x="64" y="559" width="120" height="30" as="geometry" />
        </mxCell>
        <mxCell id="EWq0sbPmy4PHpLzVdcWs-65" value="video-receiver" style="rounded=0;whiteSpace=wrap;html=1;" vertex="1" parent="1">
          <mxGeometry x="202" y="669" width="121" height="38" as="geometry" />
        </mxCell>
        <mxCell id="EWq0sbPmy4PHpLzVdcWs-66" value="A:R:microphone_P&lt;div&gt;primary&lt;/div&gt;" style="rounded=0;whiteSpace=wrap;html=1;" vertex="1" parent="1">
          <mxGeometry x="62" y="332" width="121" height="38" as="geometry" />
        </mxCell>
        <mxCell id="EWq0sbPmy4PHpLzVdcWs-67" value="pcm16/alsa&lt;div&gt;ms2131&lt;/div&gt;" style="shape=trapezoid;perimeter=trapezoidPerimeter;whiteSpace=wrap;html=1;fixedSize=1;" vertex="1" parent="1">
          <mxGeometry x="62" y="302" width="120" height="30" as="geometry" />
        </mxCell>
        <mxCell id="EWq0sbPmy4PHpLzVdcWs-69" value="A:L:audience" style="rounded=0;whiteSpace=wrap;html=1;" vertex="1" parent="1">
          <mxGeometry x="62" y="370" width="121" height="38" as="geometry" />
        </mxCell>
        <mxCell id="EWq0sbPmy4PHpLzVdcWs-70" value="A:R:laptop input" style="rounded=0;whiteSpace=wrap;html=1;" vertex="1" parent="1">
          <mxGeometry x="64" y="677" width="121" height="38" as="geometry" />
        </mxCell>
        <mxCell id="EWq0sbPmy4PHpLzVdcWs-71" value="pcm16/alsa&lt;div&gt;ms2131&lt;/div&gt;" style="shape=trapezoid;perimeter=trapezoidPerimeter;whiteSpace=wrap;html=1;fixedSize=1;" vertex="1" parent="1">
          <mxGeometry x="64" y="647" width="120" height="30" as="geometry" />
        </mxCell>
        <mxCell id="EWq0sbPmy4PHpLzVdcWs-72" value="A:L:laptop input" style="rounded=0;whiteSpace=wrap;html=1;" vertex="1" parent="1">
          <mxGeometry x="64" y="715" width="121" height="38" as="geometry" />
        </mxCell>
        <mxCell id="EWq0sbPmy4PHpLzVdcWs-73" value="A:R:microphone_B&lt;div&gt;backup&lt;/div&gt;" style="rounded=0;whiteSpace=wrap;html=1;" vertex="1" parent="1">
          <mxGeometry x="64" y="807" width="121" height="38" as="geometry" />
        </mxCell>
        <mxCell id="EWq0sbPmy4PHpLzVdcWs-74" value="pcm16/alsa&lt;div&gt;teensy&lt;/div&gt;" style="shape=trapezoid;perimeter=trapezoidPerimeter;whiteSpace=wrap;html=1;fixedSize=1;" vertex="1" parent="1">
          <mxGeometry x="64" y="777" width="120" height="30" as="geometry" />
        </mxCell>
        <mxCell id="SD2qtICihAMcHdVdknsy-1" value="&lt;font style=&quot;font-size: 18px;&quot;&gt;Camera box&lt;/font&gt;" style="text;html=1;strokeColor=none;fillColor=none;align=center;verticalAlign=middle;whiteSpace=wrap;rounded=0;" vertex="1" parent="1">
          <mxGeometry x="80" y="150" width="109" height="30" as="geometry" />
        </mxCell>
        <mxCell id="SD2qtICihAMcHdVdknsy-3" value="&lt;span style=&quot;font-size: 18px;&quot;&gt;voctop&lt;/span&gt;" style="text;html=1;strokeColor=none;fillColor=none;align=center;verticalAlign=middle;whiteSpace=wrap;rounded=0;" vertex="1" parent="1">
          <mxGeometry x="567" y="178" width="109" height="30" as="geometry" />
        </mxCell>
        <mxCell id="SD2qtICihAMcHdVdknsy-4" value="&lt;span style=&quot;font-size: 18px;&quot;&gt;streambackend&lt;/span&gt;" style="text;html=1;strokeColor=none;fillColor=none;align=center;verticalAlign=middle;whiteSpace=wrap;rounded=0;" vertex="1" parent="1">
          <mxGeometry x="1321" y="160" width="157" height="30" as="geometry" />
        </mxCell>
        <mxCell id="SD2qtICihAMcHdVdknsy-9" value="&lt;font style=&quot;font-size: 18px;&quot;&gt;Slides box&lt;/font&gt;" style="text;html=1;strokeColor=none;fillColor=none;align=center;verticalAlign=middle;whiteSpace=wrap;rounded=0;" vertex="1" parent="1">
          <mxGeometry x="70" y="859" width="109" height="30" as="geometry" />
        </mxCell>
        <mxCell id="SD2qtICihAMcHdVdknsy-10" value="&lt;font style=&quot;font-size: 18px;&quot;&gt;How do the streams look like and where they go&lt;/font&gt;" style="text;html=1;strokeColor=none;fillColor=none;align=center;verticalAlign=middle;whiteSpace=wrap;rounded=0;" vertex="1" parent="1">
          <mxGeometry x="346.5" y="47" width="1013.5" height="30" as="geometry" />
        </mxCell>
        <mxCell id="8SPzr7OccbtX-yJwuTsY-1" value="V:slides video" style="rounded=0;whiteSpace=wrap;html=1;" vertex="1" parent="1">
          <mxGeometry x="341" y="851" width="121" height="38" as="geometry" />
        </mxCell>
        <mxCell id="8SPzr7OccbtX-yJwuTsY-2" value="raw/opengl" style="shape=trapezoid;perimeter=trapezoidPerimeter;whiteSpace=wrap;html=1;fixedSize=1;" vertex="1" parent="1">
          <mxGeometry x="341" y="821" width="120" height="30" as="geometry" />
        </mxCell>
        <mxCell id="8SPzr7OccbtX-yJwuTsY-4" value="HDMI output" style="rounded=0;whiteSpace=wrap;html=1;" vertex="1" parent="1">
          <mxGeometry x="461.5" y="851" width="121" height="38" as="geometry" />
        </mxCell>
        <mxCell id="yRNeSOtwxi1ltWnuMlAv-1" value="A:C:microphone_B" style="rounded=0;whiteSpace=wrap;html=1;" vertex="1" parent="1">
          <mxGeometry x="341" y="366" width="121" height="38" as="geometry" />
        </mxCell>
        <mxCell id="yRNeSOtwxi1ltWnuMlAv-2" value="A:R:microphone_B&lt;div&gt;backup&lt;/div&gt;" style="rounded=0;whiteSpace=wrap;html=1;" vertex="1" parent="1">
          <mxGeometry x="64" y="467" width="121" height="38" as="geometry" />
        </mxCell>
        <mxCell id="yRNeSOtwxi1ltWnuMlAv-3" value="pcm16/alsa&lt;div&gt;teensy&lt;/div&gt;" style="shape=trapezoid;perimeter=trapezoidPerimeter;whiteSpace=wrap;html=1;fixedSize=1;" vertex="1" parent="1">
          <mxGeometry x="64" y="437" width="120" height="30" as="geometry" />
        </mxCell>
        <mxCell id="yRNeSOtwxi1ltWnuMlAv-4" value="A:C:microphone_B" style="rounded=0;whiteSpace=wrap;html=1;" vertex="1" parent="1">
          <mxGeometry x="341" y="714" width="121" height="38" as="geometry" />
        </mxCell>
        <mxCell id="yRNeSOtwxi1ltWnuMlAv-5" value="A:R:laptop input" style="rounded=0;whiteSpace=wrap;html=1;" vertex="1" parent="1">
          <mxGeometry x="340.5" y="638" width="121" height="38" as="geometry" />
        </mxCell>
      </root>
    </mxGraphModel>
  </diagram>
</mxfile>
